<svg xmlns="http://www.w3.org/2000/svg" viewBox="0 0 704.13 364"><defs><style>.cls-1{fill:none;}.cls-2{fill:#FFFFFF;}</style></defs><title>logoAsset 8</title><g id="Layer_2" data-name="Layer 2"><g id="Layer_1-2" data-name="Layer 1"><rect class="cls-1" width="704.13" height="364"/><path class="cls-2" d="M103.39,218.34c-2.26.14-4.52-1.15-6.52-2.42-.21-.16-.73.22-.74.48l0,.64a10.39,10.39,0,0,1-.47,3.37c-.29,1.71.57,2.34-1.15,2.78-.77.11-1.83.23-1.91-.51-.37-2.18-2.25-5.47-3.18-7.38a19.6,19.6,0,0,1-1.59-3.56c-.34-1.28-1.24-2.55-1.58-3.83a1.66,1.66,0,0,0-.79-1.32l-.1-.21c-.58-3.26-2.55-5.85-3.71-8.83a1.72,1.72,0,0,1,.74-2.06l1.3-.62c1.18-.57,1.72-1,2.29,0,.61,1.28,1.64,3.14,2.36,4.37.81,1.7,2.92,3.45,3.89,5.21.91,1.92,2.7,3,4.06,4.74,1,1.33,2.38,1.5,3.41,2.84,1.74.76,2.67,1.88,4.66,2a8,8,0,0,0,4.32-1.05,8.6,8.6,0,0,0,2.85-2.82c1.23-2.48,2.14-4.16,1.92-6.89a23.84,23.84,0,0,0-3.37-7.8,47.69,47.69,0,0,0-9.13-8c-2.39-1.53-4.47-3.31-7.15-4.43-1.31-1.61-3.58-2.14-5-3.41s-3.39-1.95-3.18-3.09c-1.34.61-4-1-4.76-2,.54-.77-2.72-2-4.06-2.92-1.12-.78-2.3-2.31-4-2.3.39-.45-3.86-3-5.89-4.64a15,15,0,0,1-2.62-2.54c-1.68-1.55-2.84-3.61-4.78-5a40.91,40.91,0,0,1-2.72-5.24,22.47,22.47,0,0,1-1.62-7.22c-1.21-2.82-.47-2.92,0-6,0-.93,1-1.65,1.19-2.53.58-3.15,2.25-5.39,4.82-8.14a17.73,17.73,0,0,1,5.2-3.68,21.44,21.44,0,0,1,9.13-2,5.91,5.91,0,0,1,3.82,1.17c.63.37.9.26,1.15-.62.24-1.26.94-2.59.88-3.84-.09-.22,0-.38,0-.66a2.24,2.24,0,0,1,1.55-1.55c1-.18,1.93.09,2.24.85a3.9,3.9,0,0,1,.5,1.2c.16,2.62,1.25,4.85,2.21,7.14a19.47,19.47,0,0,1,1.53,4.74,16.88,16.88,0,0,0,1.93,5,37.49,37.49,0,0,1,1.55,5.49.86.86,0,0,1-.54.87,30.42,30.42,0,0,1-2.91,1.37c-.51.22-.95.28-1.18-.26-.59-1-2.56-4.17-3.08-5.36a9.49,9.49,0,0,0-2.73-3.45,2.49,2.49,0,0,1-.55-.92c-1-3.42-3.15-4-6-5.88-2.36-1.8-5.35-1.38-8.29.21l-.4.18c-1.27,1.74-3.33,2.82-4.17,4.78a11.63,11.63,0,0,0-1.14,6.4c.29,2,.86,1.81,1.41,3,1.43,3.37,1,2.52,3.21,4.49A18.61,18.61,0,0,0,71.11,150c2.22,1.44,3.1,1.69,5.38,3l1.87,1.09c.8.41.34,1.4,1.44,1.16s2.73,2,4.07,2.31c.87.26,1.55,1.11,2.39,1.65a58.2,58.2,0,0,0,5.78,3.64,33.26,33.26,0,0,1,6.55,4.23c.91.76,1.55,1.9,3,2.19,2.94,2.47,4.42,3.25,6.74,6.38,1.05,1.48,1.78,3.22,3.14,4.44a3.42,3.42,0,0,1,.88,1.42c.41,1,2,2.86,2.56,3.79a91.68,91.68,0,0,1,3.94,9.48c.29,1,1.39,7,1.19,8.08-.26,2.29-1.16,3.69-1.63,6.08l-.41.95c-1.18,2.3-4.5,4.91-7.23,6.39a4.3,4.3,0,0,1-1.58.71A36.34,36.34,0,0,1,103.39,218.34Z"/><path class="cls-2" d="M135.12,202.21c-.14-.7,0-1.13.54-1.35,1.58-.74,3.2-1.37,4.78-2.09,1-.4,1.24-.59.9-1.48-1.54-3.71-2.48-7.65-4.53-11.29,0-.11-.24-.29-.21-.55a5.43,5.43,0,0,0-.76-2.74l-6.08-16.13a8.64,8.64,0,0,0-1-2.38,3.57,3.57,0,0,1-1.25-2.56c.08-.91-.83-1.45-.79-2.48a5.53,5.53,0,0,0-1.46-3.87,2.51,2.51,0,0,0-.58-.79c-.71-.74,0-2-.75-2.75a5.43,5.43,0,0,1-1.17-2.71,14,14,0,0,0-.83-2.21,10.9,10.9,0,0,1-1.83-5.62c0-.65-.55-1.06-.92-1.67-.72-1.12-.27-2.67-1.42-3.75S116.5,133,116,131.55c-.63-1.28-1.13-2.6-1.63-3.93-2-4.81-3.68-9.72-5.51-14.57-.29-.77-.82-1-1.9-.54l-2.15.82,0,.11-1.61.62c-2,.89-2,.89-3.24-.77a1.58,1.58,0,0,1,.79-2.34,6.51,6.51,0,0,1,1.44-.69c2-.89,4.14-1.72,6.31-2.53a5.38,5.38,0,0,0,2.45-1.29c1.71-.38,3-1.48,4.79-1.63a32.63,32.63,0,0,0,4.56-1.39c5.81-1.72,17-5.19,21.54-2.16a16,16,0,0,1,8.48,6.61c1,1.79,4,5.2,4.91,6.89.51.71-.15,1.9.73,2.37.94.7.35,1.62.63,2.52l1.14,3.72c.49,2.07,1,3.16.64,5.36a4.87,4.87,0,0,0,.46,2c.61,1.54-.1,3.37-.15,5,0,1.36-1.89,5.66-1.33,7a.85.85,0,0,1-.08.64,35.81,35.81,0,0,0-2.81,4.74c-.47,1.14-3.08,3.37-3.9,4.26-1.76,1.83-5.93,3.5-7.77,4.65a1.14,1.14,0,0,0-.4,1.26l.47,1.34c2,5.68,4,11.36,6.09,17l3.74,10.7c.47,1.34,1.64,2.43,1.68,4-.08.15.23.29.31.52.51.7,1.09.87,1.72.4a19.49,19.49,0,0,1,5.63-1.92c1.32.06,1.19,1.6,1.84,2.37a1,1,0,0,1-.17,1.43,49.08,49.08,0,0,1-5.36,1.82,5.74,5.74,0,0,0-3.33,1.66,1.36,1.36,0,0,1-.93.33c-4.26.89-4.84,1.11-7.92,2.74a2.68,2.68,0,0,1-1.31.36,7.84,7.84,0,0,0-3.77,1.55,10.77,10.77,0,0,1-2.45,1.19C136.45,204.6,136,204.41,135.12,202.21ZM143,150.75c.62.16.69-.86.9-1.06,1.07-1,1.68-1.69,1.68-2.94s1-2.46.94-3.93A30.34,30.34,0,0,0,145,133c.16-2.54-.74-4.85-1.48-7.09-.48-1.46-1.23-2.83-1-4.39a1.1,1.1,0,0,0-.3-.9,4.73,4.73,0,0,1-1.14-2.11,21.55,21.55,0,0,0-1.5-5c-1.1-.63-2.38-2.69-3.12-3.57a25,25,0,0,0-4.42-4.24c-2.26-1.35-5.74-1.29-8.6.09-.5.3-.75.89-.36,1.13,1.42,1,1,2.78,1.89,4.09a6.06,6.06,0,0,1,1.06,3c-.14,1.3,1.45,2,.87,3.32.84.7.5,1.83.81,2.72,1.11.61,1.1,1.86,1.45,2.87.76,1.74,1.22,3.45,2,5.19a39.19,39.19,0,0,0,2,5.3c1,1.53,1.17,3.34,2,4.81,1.12,2.36,1.89,5,3,7.33l1.72,4.9c.23.67.26,1.54.88,1.69A3,3,0,0,0,143,150.75Z"/><path class="cls-2" d="M192.15,185.5l-2.24.63c-1.74.62-1.73.62-2.85-1a1.46,1.46,0,0,1,.72-2.42l4.28-1.2c.8-.34,1-.64.73-1.55a32.6,32.6,0,0,0-1.44-4.75c-.43-1.1,0-2.33-.67-3.37a14.53,14.53,0,0,1-1-3.15l-1-3.53c-.19-1.17-.75-2.24-.45-3.55a1.56,1.56,0,0,0-.47-1.22,6.84,6.84,0,0,1-1.22-3c-.5-2.8-1.91-5.47-1.91-8.41-1.48-2.41-1.85-5.24-2.73-7.94L176,119.65c-1.25-4.55-3.64-11.12-4.07-15.29-1-1-2.13-6.15-3.21-11.12-.19-.68-.53-.84-1.35-.61-1.65.46-3.16.88-4.7,1.2-.55.16-1,0-1.19-.52a3.68,3.68,0,0,1-.5-1.21c-.29-1,.09-1.75,1.34-2.1,2.21-.63,4.65-.94,6.64-1.85,2.26-1,.28-.08,2.77-.75,1.39-.37,2.82-1.12,4.19-1s2.5-.65,3.8-.74A14.51,14.51,0,0,0,185,84.12a14,14,0,0,1,3.78-.8c2.48-.11,2.86.29,2.77,2.37a1.07,1.07,0,0,1-.94,1L185.21,88c-.52.25-.91.47-.77,1,.63,2.52,1,5.6,2.28,7.95-.19,2.12,2.05,3.62,1.32,5.87,1,1,1,2.42,1.35,3.68a16.17,16.17,0,0,1,.76,2.49,16.89,16.89,0,0,0,.23,2.62,15.14,15.14,0,0,0,.94,2.08,11.52,11.52,0,0,1,.06,1.93c-.15.52.52,1,.5,1.46a1.74,1.74,0,0,0,.29,1.15,6.82,6.82,0,0,1,.8,3.21c0,1.1.64,2,.48,3a6.83,6.83,0,0,0,.44,2.32c1,4.73,2.35,9.39,3.39,14.12.32,1.26,1.14,2.39.41,3.79,1.84,3.07,2,6.55,3,9.72l.77,1.51a9.56,9.56,0,0,1,.7,1.77,11.21,11.21,0,0,0,.59,2.89c.42.63-.09,1.73.6,2.41-.38,1.07.7,1.77.81,2.72a1.22,1.22,0,0,0,.23.92c.47.86-.45,1.82.36,2.47s.55,1.69.87,2.46c.5,1-.21,2.24.62,3-.22.66.14,1.06.37,1.49.7,1.29.58,1.31,1.84.76a8.82,8.82,0,0,1,1.59-.75c3.48-.84,2.9-.57,3.61,2.41.19.8-.45,1.8-1.22,1.75-1.42-.14-2.47.72-3.77,1-2.4.47-4.63,1.16-7,1.67-1.66.43-3,1.41-4.79,1.52S193.72,185.18,192.15,185.5Z"/><path class="cls-2" d="M226.15,177.82c-.52-.13-1.15-.11-1.51-.64a3.53,3.53,0,0,1-.48-2.19.65.65,0,0,1,.4-.45c1.41-.43,2.86-.74,4.3-1,1.2-.25,1.39-.53,1.18-1.57-1-4.62-1.79-9.27-2.89-14-.58-2.77-1.27-5.52-1.85-8.3a4.48,4.48,0,0,0-.9-2.46,1.53,1.53,0,0,1-.21-1.64c.26-.66-.39-1.24-.38-1.85a2,2,0,0,0-.51-1.82c-.15-.09-.2-.32-.25-.55a6.71,6.71,0,0,0-.2-2.25,6.64,6.64,0,0,1-.71-2.14,14.4,14.4,0,0,1-.48-2.31c-.17-.81.18-1.72-.25-2.48-.27-.67-.85-1.51-.59-2.17.32-1-.88-1.63-.37-2.45q-1.43-5.91-2.87-11.82a4.82,4.82,0,0,0-.66-1.19,2.61,2.61,0,0,1-.59-2.17,6.43,6.43,0,0,0-.65-4.45c-.44-.75.22-1.61-.46-2.2-.84-.67-.29-1.39-.32-2.22a2,2,0,0,0-.45-1.47,10.68,10.68,0,0,1-1.21-5.78,21.83,21.83,0,0,0-.59-4.22l-1.88-9c-.1-.46-.45-.75-1.14-.61l-4,.86c-1.94.42-3.58-1-2.77-2.66a4.14,4.14,0,0,1,1.11-1,18.38,18.38,0,0,1,2.49-.66,8.23,8.23,0,0,0,2.35-.62c2-1.39,4.53-.7,6.75-1.26A29.31,29.31,0,0,1,222,75.82c.44,0,.77.22.83.56,1.12,3.63,3.42,6.69,4.63,10.18a8.14,8.14,0,0,0,1.17,1.71A11.75,11.75,0,0,1,231,92.64,6.56,6.56,0,0,0,232.54,96c1.22,1.34.85,3.21,2.18,4.41.93,3.67,3.27,6.74,4.42,10.25.53,1.47,2.6,4.82,3.25,6.27,2.23,4.41,3.78,7.27,5.84,11.71.39.77.27,1.63.64,2.29a17.9,17.9,0,0,1,1.17,2.32c.5.64.1,1.42.72,2a4.27,4.27,0,0,1,1.1,2c.67,2.52,2,4.95,2.85,7.32a32.26,32.26,0,0,0,1.89,4.72c.12,0,.27.08.34-.29-.07-1.3-.63-4.08-.67-4.32-.2-3-1-6.42-1.42-9.22,0,0-.09-.58,0-.6-.36-2.33-1.21-4.47-1.58-6.8-.18-1.17,0-2.51-.82-3.58a1.47,1.47,0,0,1-.33-1.26,21,21,0,0,0-1.4-9,2,2,0,0,1,0-1c.75-2.15-.35-4-.66-6l-1.21-7.82c-.2-1.28-.53-2.54.1-3.84a9.41,9.41,0,0,1-1.28-3.74,31.35,31.35,0,0,0-1-6.18,18.26,18.26,0,0,0-1-3.78c-.32-1.14-1.08-2.34-.44-3.75.23-.39-.27-.8-.48-1.24a1.49,1.49,0,0,0-1.55-.71c-1.12.18-1.62.62-2.64.54a1.88,1.88,0,0,1-1.92-.29,2.36,2.36,0,0,1-.87-1.77c-.16-.93,0-1.44,1.16-1.75,1.69-.28,2.89,0,4.39-.58,2.87-1,5.91-1,8.87-1.45a4.17,4.17,0,0,1,2.45,0c1.32.17,1.65.49,1.64,1.44a1.82,1.82,0,0,1-1.72,2l-.84.12c-4.21.6-3.84.2-3.36,3.47a58.35,58.35,0,0,0,1.43,6.83c.07.47,0,.84,0,1.19a6.75,6.75,0,0,0,.21,2.36,7,7,0,0,1,.55,3.74,4.49,4.49,0,0,0,.55,1.83c.51.64.05,1.3.27,1.87a3,3,0,0,1,.27,1.87,3.29,3.29,0,0,0,0,1.67,21,21,0,0,1,.6,4.09,26.22,26.22,0,0,0,.54,4.57c.21,1.4.65,2.53.85,3.93s.2,3.19.41,4.59l.62,4.2c.22,1.52.58,3,.8,4.54l.64,4.32a5,5,0,0,0,1.15,2.46c-.21,1.22,1,2.36.29,3.77-.19.5.19,1.28.27,1.87L262,152a33.59,33.59,0,0,0,.76,3.47c1.16,4.48.5,7.68,1.74,13.58a.9.9,0,0,1-.72.94,10.6,10.6,0,0,1-4.18.87,7.2,7.2,0,0,0-3.85.61c-2.14.47-2.32.14-3.08-.69a4.85,4.85,0,0,1-1.38-2.28c-.14-.81-1.43-1.79-1.79-2.45-.42-1-.56-1.82-1-2.71a21.1,21.1,0,0,1-1.36-2.76c-.18-1-1.12-2.08-1.55-3.08-.84-1.89-1.81-3.76-2.78-5.62,0-.12-.31-.3-.35-.54-.43-3.16-2.33-5.82-3.77-8.67-.57-1-.76-2-1.34-3s-1.38-1.79-1-3.06a18.59,18.59,0,0,1-1.77-2.43,3.94,3.94,0,0,1-.92-1.39c-.5-2.67-2.14-5-3.17-7.57-.88-2.48-2-4.79-2.88-7.26-.84-2.24-4.23-8.32-5.23-10.52-1-3-1.48-4.64-2.22-4.13-.13,0,1.65,8.22,1.67,8.33.32.9,0,2,.87,3,.6,2.29,1.08,4.72,1.67,7,1.06,8,3.24,12.23,4.45,22.34a6.76,6.76,0,0,0,1.07,3.4c.54.74,1.25,7,1.42,7.78.9,4.51,2.3,9,2.72,13.66.19.32,1,3.29,1.37,3.1a11.12,11.12,0,0,0,1.93-.38c3.16-1.09,3.78-.48,4.3,1,.11.58.16,1.53-.44,1.64a24.69,24.69,0,0,1-4.87,1.18,32.16,32.16,0,0,0-4.76,1.08,9.55,9.55,0,0,0-3,1A2.59,2.59,0,0,1,226.15,177.82Z"/><path class="cls-2" d="M280.5,168.51c-1.11-.11-2.85-.25-3.86.47s-2.12-.32-2.29-1.61l-.08-.59a1.26,1.26,0,0,1,.44-1.37,3.06,3.06,0,0,1,1.86-.95c1.6-.08,1.78-.58,1.76-1.76.05-2.62,0-5.83.36-8.37.29-1.82-.18-3.66.36-5.51-.47-1.85,0-3.68.11-5.6.19-1.69,0-3.44.3-5.14.35-1.46,0-3,.13-4.53.23-2.52-.06-5.1.05-7.61,0-3.09.22-6.32.41-9.43a40.2,40.2,0,0,0,.33-6.8c-.27-1.28.28-2.41.15-3.58a5.72,5.72,0,0,1,.18-3.34c-.35-2,.39-4.08.16-6.19-.2-1.88.45-3.61.12-5.47.77-1.86.17-3.7.54-5.51a13.24,13.24,0,0,0,.37-3.24,23,23,0,0,0,.45-5.27,8.9,8.9,0,0,1,.16-2.63c.35-2.17.43-4.31.79-6.48.17-1.2.42-1.58,1.55-1.69,1.83-.29,3.54-.45,5.38-.61,1.29,0,2-.17,2.24,1.11l.87,1.94c-.23,2.39,1,3.71,1.62,5.91.82,3.13,1.62,6.15,2.55,9.15.2.81.54,1.61.74,2.43a6.06,6.06,0,0,0,.72,2.19c0,.12.16.22.16.34a18.16,18.16,0,0,0,1.41,5.93,46.91,46.91,0,0,1,1.93,5.89c.42,2.1,1.37,4,1.38,6.06-.06,1.07.53,1.86.87,2.9.54,2,1.48,4,1.63,6.28a6.2,6.2,0,0,0,.37,1.51c.86,2.9,1.83,5.79,2.42,8.83a3,3,0,0,0,.23,1.52c1.35,2.87,1.3,6.19,2.5,9.07.21,3.3,2.35,9.44,2.1,9.57-.61.39.71,1.26,2.35,10.62a26.57,26.57,0,0,0,.92,3.26.76.76,0,0,0,1.25.41,3.09,3.09,0,0,1,1.09-.17c2.07-.34,2.2-.11,2.32,2.37a1.71,1.71,0,0,1-1.37,1.84,27.6,27.6,0,0,1-6.77.73l-1.45.09v.12l-2.91.19c-1.34,0-2.63.66-3.77,0a17.25,17.25,0,0,1-4.09.68,1.51,1.51,0,0,1-1.7-1.4,7.06,7.06,0,0,1-.26-1.64.57.57,0,0,1,.31-.74,21.13,21.13,0,0,1,3.87-.67c.73-.06,1.06-.56.88-1.37a8.75,8.75,0,0,0-.38-1.75c.14-1.43-.54-2.21-.75-3.26a8.86,8.86,0,0,1-.49-1.5,16.07,16.07,0,0,0-1-4.78l-.53-2c0-1.54-1.44-3.79-1.08-4.06s-.73-2.78-1.09-4.06a.75.75,0,0,0-.95-.63c-1.45-.47-2.65.35-3.7.08-1.52.14-3,.4-4.55.54-1.27.12-2.5.6-3.84,0-.6.42-1.42-.09-2,.57-.36.28-.6.42-.67.9-.19,3-.5,5.87-.43,8.83a48.7,48.7,0,0,1-.58,7.19,4,4,0,0,1-.11,1.2c-.07,1.55,0,3.68,0,5.23.05.47.32.68.82.74a21.31,21.31,0,0,0,2.66-.41,2.76,2.76,0,0,1,2.22,0,3,3,0,0,1,.24,3.42,10.45,10.45,0,0,1-1.48,1c-1-.6-2.55.16-3.49.51C282.62,167.78,281.37,168.64,280.5,168.51Zm5.86-33.31,4.6-.46a25.49,25.49,0,0,0,5.88-.53c.63-.17,1-.56.81-1.13a23.73,23.73,0,0,1-1-3.11c-.8-1.83-.72-3.85-1.64-5.43-1.21-1.91-1.29-4.15-1.88-6.35a6.56,6.56,0,0,1-.53-1.49,48.13,48.13,0,0,0-1.77-6.24c-.78-2.65-1.16-5.35-2.21-7.86.06-2.26-1.21-4.15-1.42-6.39a19.11,19.11,0,0,0-1.05-3.81c0-.12-.15-.1-.16-.22l-.25.26q-.14,2.8-.28,5.6c-.1,3.21-.72,6.48-.38,9.77l0,.23c-.46,3.49-.37,6.92-.68,10.39a26.76,26.76,0,0,0-.32,3.24,19.84,19.84,0,0,1,0,3.92c-.38,1.35,0,2.85-.2,4.29-.2,1.8.13,3.67-.19,5.48,0,.23.46.66.7.52A4,4,0,0,1,286.36,135.2Z"/><path class="cls-2" d="M360.15,163.93c-1.46,0-2.92.07-4.38.06-.48-.12-1-.25-1-.84v-1.06c0-2.71,0-1.77,2-2.1,1.23-.22,2.32.15,3.55.05a.76.76,0,0,0,.63-.7c.11-5.9.61-11.91.21-17.59l.12-6.26c.14-7.55.42-15.22.57-22.78,0-.71.42-1.29.43-1.88a9.54,9.54,0,0,0-.36-1.9,11.26,11.26,0,0,1,.58-2.23c0-.59-.64-1.43-.36-1.9,1-2.46-.85-5,.41-7.31-.76-2.85-.16-5.91-.23-8.86l.34-17.82a10.1,10.1,0,0,0-.1-2c0-.35-.27-.48-.7-.6l-4.38-.07c-.71-.13-1.13-.48-1.12-1.19a2.82,2.82,0,0,1,0-1.53c0-.35.29-1.06.72-1.17,1,0,2.28.15,3.13.16s1.84.38,2.84.05a9.82,9.82,0,0,1,2-.19c2.7.06,5.55,0,8.25.12,6.26.2,15.89,1.28,22,1.24a16.38,16.38,0,0,1,2.4.4c.84.3,1.08.79,1.14,2a73.87,73.87,0,0,1-.15,9.81,4.07,4.07,0,0,0-.09,1.29c.83,2,.27,3.93.26,5.94.11,2.26-1.13,2.16-3.18,1.78-.27-.14-.67-.28-.66-.4-.48-1.1-1.81-1.9-1.58-3.3a4.18,4.18,0,0,0-.41-2.27c-.6-1.46-.93-2.9-1.54-4.36a14.89,14.89,0,0,1-1.44-4.11c-.09-.83-.76-1.46-1-2.19s-.94-.88-1.78-1c-2.09-.59-5.65-.29-6.78-.34-1.84-.08-1.84-.08-1.48,1.59a3.76,3.76,0,0,1,.08,1.3l-.5,11.56a5.6,5.6,0,0,1-.39,2.58c-.14.11-.15.35-.16.58.73,2.16-.05,4.37.13,6.5a5.7,5.7,0,0,1-.69,3.28c-.14.11-.15.35-.16.58-.45,1,.87,1.93.13,3.2-.57.8-.35,1.88-.4,2.94l-.14,3.3c0,.59.53.26.92.39a5.52,5.52,0,0,0,3.87.06c.68-.2,3.2.17,3.76-.16.84-.54.49-1.63.41-2.46a20.39,20.39,0,0,0,.44-2.93c-.12-.24.17-.7.45-.8a5,5,0,0,1,3.23.31,1.36,1.36,0,0,1,.74,1.11,33.57,33.57,0,0,1-.33,5.18,20.94,20.94,0,0,0-.31,2.82c.08,2.84-.34,5.42-.53,8.36,0,.59-.45.92-1.12,1.11a6,6,0,0,1-2.89-.05c-.13,0-.37-.38-.37-.49l.15-2.71c.07-1.18.53-2.33.6-3.51a2.13,2.13,0,0,0-.19-1.31c-.38-.38-.93.07-1.33,0-1.85-.1-4.9-.25-6.76-.22-.8,0-1.07.19-1.1.9-.22,5.19-.31,10.38-.53,15.46a7.6,7.6,0,0,0,.32,1.67,5.74,5.74,0,0,1-.13,2.95c-.28.58.07,1.42-.47,2.11-.28.46.33,1.2.43,1.79a5.34,5.34,0,0,1,.07,1.42,33.88,33.88,0,0,0-.35,5.07c.05,1.66,0,3.31-.09,5-.17,3.77-.93,7.17-.49,11.2l0,1.06a.89.89,0,0,0,.94,1l5.5.27c1,.05,1.33.31,1.26,1.49l0,.59c-.23,1.88-.24,2-2.3,1.88-2.91-.16-6.92-.34-9.83-.56a26.18,26.18,0,0,0-5.36.42A13.26,13.26,0,0,0,360.15,163.93Z"/><path class="cls-2" d="M402.45,166.82c-1.07-.33-2.73-.84-3.87-.34s-2-.76-1.91-2.05l0-.59c0-.59.21-1,.71-1.25a3.05,3.05,0,0,1,2-.54c1.58.25,1.86-.19,2.09-1.36.59-2.55,1.25-5.7,2.09-8.11.66-1.72.58-3.62,1.49-5.32-.08-1.9.71-3.61,1.27-5.45.53-1.61.7-3.37,1.36-5,.64-1.36.66-2.9,1.07-4.4.75-2.42,1-5,1.63-7.43.69-3,1.52-6.14,2.35-9.14a39.9,39.9,0,0,0,1.73-6.59c0-1.31.77-2.29.89-3.47a5.72,5.72,0,0,1,.87-3.23c.07-2,1.22-3.91,1.44-6,.19-1.88,1.19-3.44,1.25-5.33,1.15-1.66.93-3.58,1.67-5.28a13.31,13.31,0,0,0,1-3.09,22.93,22.93,0,0,0,1.54-5.06,9,9,0,0,1,.7-2.54c.79-2.05,1.31-4.13,2.11-6.18.41-1.14.74-1.46,1.87-1.33,1.85.09,3.56.3,5.4.52,1.26.27,2,.25,2,1.55l.45,2.08c-.72,2.29.23,3.84.36,6.12.15,3.23.31,6.35.6,9.48,0,.84.2,1.69.23,2.53a6.1,6.1,0,0,0,.25,2.3c0,.12.11.25.09.37a18.11,18.11,0,0,0,.15,6.09,47.09,47.09,0,0,1,.67,6.17c0,2.14.5,4.24.09,6.21-.28,1,.14,1.93.25,3,.12,2,.61,4.26.29,6.48a6.27,6.27,0,0,0,0,1.56c.24,3,.59,6,.54,9.14a3,3,0,0,0-.09,1.54c.73,3.09,0,6.32.57,9.39-.48,3.27.34,9.72.07,9.8-.68.26.44,1.38.1,10.88a26.82,26.82,0,0,0,.23,3.38.76.76,0,0,0,1.14.66,3.14,3.14,0,0,1,1.11.06c2.1.1,2.18.35,1.78,2.8a1.71,1.71,0,0,1-1.73,1.51,27.74,27.74,0,0,1-6.8-.69l-1.44-.21,0,.12-2.89-.42c-1.31-.3-2.72.1-3.71-.75a17.31,17.31,0,0,1-4.15-.19,1.52,1.52,0,0,1-1.38-1.72,7.11,7.11,0,0,1,.08-1.66.57.57,0,0,1,.45-.66,21.2,21.2,0,0,1,3.93.15c.73.1,1.16-.32,1.14-1.16a8.61,8.61,0,0,0,0-1.79c.43-1.37-.07-2.27-.05-3.34a9.16,9.16,0,0,1-.17-1.57,16,16,0,0,0,0-4.88q-.06-1-.11-2c.32-1.51-.63-4-.22-4.19s-.14-2.87-.23-4.19c-.05-.6-.29-.75-.8-.81-1.32-.76-2.67-.21-3.64-.68-1.52-.18-3.05-.24-4.57-.41-1.26-.14-2.57.07-3.76-.77-.67.29-1.37-.38-2.06.14-.4.2-.67.29-.84.74-.8,2.89-1.71,5.64-2.25,8.55a48.83,48.83,0,0,1-2.05,6.92,4.06,4.06,0,0,1-.36,1.15c-.39,1.5-.72,3.61-1.11,5.11,0,.47.18.73.65.89a21.31,21.31,0,0,0,2.69.15,2.77,2.77,0,0,1,2.17.46,3,3,0,0,1-.48,3.39,10.31,10.31,0,0,1-1.66.66c-.9-.8-2.53-.37-3.52-.23C404.67,166.55,403.28,167.13,402.45,166.82Zm12.64-31.37,4.59.51a25.49,25.49,0,0,0,5.86.7c.65,0,1.08-.34,1-.94a24.36,24.36,0,0,1-.37-3.26c-.41-2,.09-3.91-.48-5.65-.79-2.12-.4-4.33-.52-6.6a6.56,6.56,0,0,1-.21-1.57,48.24,48.24,0,0,0-.44-6.47c-.21-2.76,0-5.47-.54-8.14.53-2.2-.32-4.31-.07-6.54a19.35,19.35,0,0,0-.24-3.95c0-.12-.12-.13-.11-.25l-.3.2-1.43,5.42c-.76,3.12-2,6.19-2.4,9.47l0,.23c-1.17,3.32-1.8,6.69-2.82,10a26.78,26.78,0,0,0-1,3.1,19.81,19.81,0,0,1-.8,3.83c-.65,1.24-.55,2.79-1.09,4.16-.57,1.72-.63,3.61-1.32,5.32,0,.23.31.74.58.65A4,4,0,0,1,415.09,135.44Z"/><path class="cls-2" d="M447.73,170.92a3.18,3.18,0,0,1,.3-1,1.32,1.32,0,0,1,1.53-.94c1.11.07,2.3.4,3.4.48,1.93.35,1.93.35,2.25-1.39s.82-3.81,1.18-5.78a6.89,6.89,0,0,0,.75-2,5.55,5.55,0,0,1,.11-2,34.59,34.59,0,0,1,1.84-8.66,2.08,2.08,0,0,0-.1-.86,10.49,10.49,0,0,1,.36-2c1.66-3.42,1.59-7.27,2.5-10.82a2.62,2.62,0,0,0,.25-1.39c0-1.56,1.17-2.79,1-4.62-.24-1.6.47-3.28.74-4.78l4.7-25.66c.25-1.39.8-2.85.22-4.28-.11-.14,0-.23.06-.35-.34-1.26.95-2.11.75-3.34a3.49,3.49,0,0,1,.87-3.2,2,2,0,0,0,.31-.9l1.49-8.13c.15-.81-.46-1.41-1.51-1.23-1.81.39-3.58-.16-5.42-.36a1.78,1.78,0,0,1-1.22-1.29,6.42,6.42,0,0,1,.28-1.63c.1-.58.72-.84,1.46-.95a7,7,0,0,1,1.55.27q3.94.69,7.87,1.42a47,47,0,0,0,5.5.93c1.85.24,3.39,1.27,5.28,1.29.44,0,.82.29,1.1.34,3.05,1.47,5.94,1.6,9,3,1.6.71,4.8,1.43,5.84,2.64,2.61,3.26,5.9,4.77,6.58,8.58.33,1.66,2.31,8.34,2.3,10s-.9,3.06-.63,4.83c0,.49-.72,1.16-.86,1.73a25.72,25.72,0,0,0-1.11,4.47c-.81,3.81-1.94,4.38-4.13,7.61-.68,1-4.69,4.45-5.22,5.54-1.57,2.54-4,2-6.48,3.69-1.3.91-4.81.84-6.56.82-.67,0-.54,0-.54.61,1.29.88,6.42,2.77,7.48,5.69,1.13,2.69,1.2,8.53,1.35,11.24s.59,5.24.62,7.8.11,4.89,0,7.3a23.52,23.52,0,0,0,.67,6.13c.63,2.59,0,3.76.3,6.41a2.58,2.58,0,0,0,1.5,2.58c1.49.63.39.47,1.94.87.8.33,1.07.77.71,1.65l-.24.91a1.57,1.57,0,0,1-1.81,1.11q-3.85-1-7.71-2c-.59-.15-3.3-.93-3.43-1.44-.37-1.06-2.38-2.15-2.5-3.26-.15-2.58-1.17-5.85-1.34-8.43-1.24-1.86-.28-3.82-.75-5.74.31-3.08-.31-6.12-.26-9.25a1.22,1.22,0,0,0-.19-.89c-.88-3.7-1-7.47-1.38-11.18,0-1.09.4-5,.22-6-.26-1.26-.43-2.38-.58-3.62-.06-.37-.16-.52-.68-.62a1.42,1.42,0,0,0-1.23.1.86.86,0,0,0-.38.52c-.39,1.25-.87,5.49-1.88,6.48-.18.2,0,.72.06,1a3.87,3.87,0,0,1-.6,2.89,6.28,6.28,0,0,0-.83,2.12l-5.6,27.17c-.38,1.25-.38,1.25.84,1.38,1.47.19,2.84.23,4.31.43a2.51,2.51,0,0,1,2.29,2.19c.21.77-.37,1.13-.74,1.65-.68.82-.71.93-1.58.38-.48-.1-.79-.41-1.31-.28a2.66,2.66,0,0,1-.91.17,9.35,9.35,0,0,0-3.56-.87,12.76,12.76,0,0,1-3.63-.5q-7.54-1.51-15.1-2.82C447.94,172.63,447.64,172.22,447.73,170.92Zm37-44.41a5.5,5.5,0,0,0,1.84-.93,24,24,0,0,0,4.6-5.27c1.91-3,2-3.91,2.77-7.36a2.86,2.86,0,0,1,.37-1,6.28,6.28,0,0,0,1.11-3l.73-3.22c1.19-3.36,1.09-7.26,1.1-11.13l-.15-1.24c-.71-2,.83-3.69-.35-5.52-1.77-3.78-2.25-3.64-6.1-5.31-.53-.23-1.09-.35-1.48-.55-.81-.29-1.25-.26-1.37.32l-1.68,8.09c-.17.81-.11,1.91-.66,2.51a10.45,10.45,0,0,0-1.48,4.4l-.93,4.51c-.85,4.77-2.31,7.84-2,12.85a44.71,44.71,0,0,1-1.86,8.3c-.5,1.1-.17,2.13-.52,3.15a1.37,1.37,0,0,0,0,.72,1.51,1.51,0,0,0,.6.37C481.86,126.73,482.36,127.56,484.77,126.51Z"/><path class="cls-2" d="M509.26,186.51c-1.8-.39-3.18-.9-4.72-1.32a.93.93,0,0,1-.76-.94,6.63,6.63,0,0,1,.17-1.54c.22-1.28.47-1.71,1.65-1.38s2.11.7,3.3,1a5.33,5.33,0,0,0,1.34.26c.12,0,.3-.16.37-.39,0-2.21,1.07-4.24,1.41-6.35.2-1.17,1.34-2,1.17-3.23a7.18,7.18,0,0,1,.88-3.55c.83-2.46,1.08-5.22,2.53-7.5-.17-1.76.56-3.4,1-5.1.39-1.36.59-3,1.6-4.21.67-2.39,1.89-4.74,1.81-7.34a12.76,12.76,0,0,1,.49-2.19c2.29-8.55,4.7-17.07,7.08-25.48.64-2.76,1.78-5.26,1.85-8.06,1-1.33,1.14-3,1.72-4.54l2.61-9.2c.29-1,.08-1.33-1.16-1.68l-4-1.11c-.93-.38-1.08-.91-1.28-1.82,0-.61.28-1,.26-1.52a1.21,1.21,0,0,1,1.58-.91c2.57.95,4.68,1.9,7.63,2,1.65,0,3.35.84,5.17,1.25,1.52.45,3.07,1.28,4.75,1.17.79-.13,3.2,1.34,4,1.71s.54,2.14.45,4.34a10.12,10.12,0,0,0-.24,3.64,10,10,0,0,1-.31,2.87,6,6,0,0,0-.13,2.31,60.3,60.3,0,0,1-1,8.72,23.81,23.81,0,0,0-.28,3.63c-.29,4.12-1,8.11-1.42,12.07-.48,3.69-.83,7.42-1.17,11-.17,2.68-.47,5.31-.75,7.83q0,1.19,0,2.38l.18.31c.2-.18.36-.25.4-.37a19.68,19.68,0,0,1,1.86-3.49c.71-.88.75-2.24,1.75-3.15.16-.07.24-.29.31-.52.68-2.88,2.51-5.38,3.58-8.14a35,35,0,0,1,3-5.85,13,13,0,0,0,1.54-2.84,14.5,14.5,0,0,1,1.36-2.28q2.4-3.86,4.83-7.7c1.62-2.57,3.21-5,4.58-7.66a49.37,49.37,0,0,1,5.05-8,1.44,1.44,0,0,1,1.26-.56,5.63,5.63,0,0,1,2.51.26c3,1.17,6.11,2.2,9.09,3.3a7.43,7.43,0,0,0,3.1.78c.89.08,1.23.84,1.9,1.1l4.86,1.87c.81.31,1.08.8,1,1.41A2.2,2.2,0,0,1,596,114l-3.76-1.44a.77.77,0,0,0-1.19.3,14.31,14.31,0,0,0-1,2.27,8.65,8.65,0,0,1-1.77,3.87,14.3,14.3,0,0,0-1.77,3.87l-4.93,13a9.6,9.6,0,0,0-.86,3.84,5.27,5.27,0,0,1-1.38,3.26,3.4,3.4,0,0,0-1,2.38.85.85,0,0,1,0,.65,4.28,4.28,0,0,0-1.21,3.2c0,1.14-.71,2.26-1.17,3.47l-1.17,3.09a34,34,0,0,0-1.3,3.42c-.17.82-1.12,1.09-1,2.27.12.8-.46,1.59-.8,2.48-1.72,4.53-3.43,9.05-5,13.62-.8,2.1-1.87,4.21-2.07,6.54a7.7,7.7,0,0,1-.93,2.8c-.57.79-.56,1.81-1.24,2.56,0,.11-.2.18-.2.18-.22,2.7-1.77,5-2.34,7.57-.09.6.06.91,1,1.26.62.11,2.63,1.14,3.44,1.46a.9.9,0,0,1,.55,1l-.47,1.21c-.47,1.21-.95,2.42-2.19,2.19a4,4,0,0,1-1.76-.94,27.57,27.57,0,0,1-2.88-1.1c-.35-.13-.89-.09-1.24-.22-2.15-.94-4-1.14-5.85-2.68a.57.57,0,0,0-.58-.21c-1-.23-1.86-.3-2.83-.52s-1.58-1.07-2.71-1.21a25.8,25.8,0,0,0-3-.79c-1.47-.26-2-1.06-1.6-2.55a3.08,3.08,0,0,1,.23-1c.23-.29.58-.92,1.09-.88a25.64,25.64,0,0,1,2.81.6c.63.09,1.25.94,1.83.77.74-.24.47-1.71.94-2.3.39-3.37,2-6.32,2.94-9.48,1.06-3,2.24-6,3.18-9s2.12-6,3.05-9.06c.39-1.11,1.24-1.94,1.26-3.19s.86-2.45,1.29-3.67l6.16-17.48c1.3-3.67,2.42-7.28,3.71-11,.51-1.45.46-3,1.36-4.28.08-.22.48-1,.09-1.09a.78.78,0,0,1-.45-.41c-.17.07-.34.13-.38.24q-2.06,3.34-4.1,6.7c-.76,1.36-1.43,2.87-2.36,4.3-.76,1.36-1.26,2.81-2.11,4a21.8,21.8,0,0,0-2.56,5.36c-.46,1.34-1.65,2.31-1.85,3.73-1.19.59-.49,1.83-1.17,2.59a15.07,15.07,0,0,0-1.34,2.29c-.74,1.74-2.22,3.24-2.61,5.22-.08.22-.28.4-.35.63-.48.59-1.41.89-1.39,1.65s-.54,1.19-.73,1.75c-1.14,3-3.23,5.52-4,8.62-.37,1.5-1.39,2.52-1.84,3.87a16.29,16.29,0,0,1-1.83,3.87c-.7.89-1,2.16-1.8,3a2.4,2.4,0,0,0-.17,1.31c-.07.22,0,.49-.31.52a3.46,3.46,0,0,1-3.5.21,5.26,5.26,0,0,0-2.19-1c-.79,0-1.29-.91-1.24-1.89.22-3.15.26-6.23.73-9.43.38-2.48,1.16-5,.6-7.48.53-3.42.14-7,.77-10.39a3.85,3.85,0,0,0,0-1.36c-.66-1.44,0-3.58,0-5.05,0-4.07.57-7.35.82-11.47.16-4.27.2-8.69.48-13,.11-2.8.38-5.67.77-8.51,0-.11-.33-.34-.43-.5a.85.85,0,0,0-.4.38c-1.19,3.59-2.24,7.22-3.3,10.84-.3,1-.33,2.12-1.15,3-.2.19-.13.45-.16.57.19,1.28-.4,2.34-.76,3.59-1.15,4.46-2.44,8.88-3.73,13.3a4.31,4.31,0,0,0-.36,1.25c.16,2.75-1,5.25-1.71,7.74a8.32,8.32,0,0,1-1.36,3.29,8.79,8.79,0,0,0-.73,2.49c-.07.23.12.53.08.64a5.72,5.72,0,0,1-.83,2.83c-.51.83-.22,1.66-.6,2.53a7.16,7.16,0,0,1-1,2.65,1.58,1.58,0,0,0-.58,1.55c.48,1.49-1,2.54-.79,4.07.09.15-.1.34-.29.53a3.22,3.22,0,0,0-.91,2.68,1.22,1.22,0,0,1-.36,1.25,5.75,5.75,0,0,0-1,3.4,14.33,14.33,0,0,1-.27,2.26.73.73,0,0,0,.48,1c1.81.41,2.94,1.36,4.8,1.18.44.26,1.45.32,1.32.77l-.38,1.24a2.14,2.14,0,0,1-2.6,1.8,14.91,14.91,0,0,1-2.27-.56c-2-.59-4-1.78-5.29-1.55Z"/><path class="cls-2" d="M585.8,213.85c-1.6-1.61-2.12-4.15-2.47-6.49,0-.27-.64-.4-.85-.24l-.46.44a10.42,10.42,0,0,1-2.83,1.87c-1.47.92-1.38,2-2.84,1-.59-.51-1.37-1.21-.87-1.77,1.39-1.72,2.62-5.3,3.44-7.26a19.59,19.59,0,0,1,1.62-3.54c.74-1.1,1.09-2.61,1.83-3.71a1.67,1.67,0,0,0,.48-1.46l.09-.22c2.06-2.59,2.7-5.78,4.17-8.62a1.71,1.71,0,0,1,2-.81l1.32.56c1.2.51,1.84.66,1.54,1.69-.56,1.3-1.28,3.3-1.72,4.66-.74,1.74-.67,4.47-1.35,6.36-.84,2-.5,4-.88,6.18-.31,1.67.44,2.77.12,4.44.58,1.8.35,3.25,1.56,4.82a7.94,7.94,0,0,0,3.64,2.55,8.61,8.61,0,0,0,4,.28c2.68-.71,4.54-1.14,6.46-3.1a23.85,23.85,0,0,0,3.63-7.68,47.81,47.81,0,0,0,0-12.14c-.43-2.8-.47-5.55-1.4-8.3.35-2-.76-4.1-.77-6s-.77-3.83.22-4.43c-1.34-.6-1.89-3.67-1.67-4.86.93-.11-.3-3.35-.48-5-.15-1.35.22-3.25-.88-4.49.6,0-.29-4.87-.39-7.48a15,15,0,0,1,.18-3.64c.06-2.28.84-4.51.63-6.9A41.18,41.18,0,0,1,605,135a22.64,22.64,0,0,1,4.34-6c1.32-2.77,1.88-2.29,4.48-4,.72-.59,1.87-.36,2.68-.79,2.74-1.65,5.52-1.87,9.28-1.77a17.67,17.67,0,0,1,6.19,1.47,21.54,21.54,0,0,1,7.54,5.54,5.91,5.91,0,0,1,1.65,3.65c.14.72.4.84,1.23.45,1.11-.65,2.57-1,3.47-1.87.1-.21.28-.26.52-.41a2.25,2.25,0,0,1,2.2.14c.82.66,1.21,1.51.85,2.25a3.92,3.92,0,0,1-.57,1.17c-1.87,1.85-2.82,4.14-3.9,6.37a19.51,19.51,0,0,1-2.55,4.27,16.7,16.7,0,0,0-2.45,4.72,37.35,37.35,0,0,1-3.1,4.79.87.87,0,0,1-1,.17,31,31,0,0,1-3-1.29c-.51-.24-.84-.53-.58-1.06.38-1.13,1.44-4.67,2-5.85a9.44,9.44,0,0,0,.78-4.33,2.46,2.46,0,0,1,.32-1c1.9-3,.95-5,.44-8.4-.21-3-2.5-4.93-5.64-6.09l-.4-.18c-2.15.2-4.31-.64-6.34,0a11.62,11.62,0,0,0-5.55,3.37c-1.28,1.51-.8,1.84-1.31,3-1.59,3.3-1.21,2.44-1.25,5.38a18.56,18.56,0,0,0,.41,5.72c.38,2.62.77,3.44,1.31,6l.42,2.13c.22.87-.83,1.18.08,1.85s.3,3.37,1,4.58a11.54,11.54,0,0,1,.34,2.88,57.67,57.67,0,0,0,1.1,6.75,33.47,33.47,0,0,1,1.16,7.72c0,1.19-.4,2.42.33,3.69.1,3.84.49,5.47-.32,9.28-.41,1.77-1.24,3.47-1.25,5.3a3.41,3.41,0,0,1-.49,1.6c-.47,1-.8,3.42-1.15,4.43a90.87,90.87,0,0,1-4.52,9.22c-.58.9-4.32,5.64-5.29,6.22-1.9,1.31-3.55,1.56-5.66,2.78l-1,.32c-2.52.63-6.67-.15-9.59-1.22a4.32,4.32,0,0,1-1.58-.72A36.18,36.18,0,0,1,585.8,213.85Z"/><path class="cls-2" d="M507.4,259.58s2.89.15,5.84.39c6,.61,12.17,1,18,2.4h-.34c7.16-.71,12.62-8.57,20.47-6.43,4.09,1.43,6.14,6.07,9.55,7.15,5.12,1.43,11.26,0,16.14,3.4,1.28.61,2.54,1.23,3.77,1.76.31.14.62.27.92.4l.92.37c.61.22,1.22.46,1.84.63s1.22.33,1.84.47c.31.07.6.09.9.14l.45.07.11,0H588a8.17,8.17,0,0,0,3.29-.87l-.3.2a27.52,27.52,0,0,1,6.88-3.8,16.41,16.41,0,0,1,3.89-.88,14.56,14.56,0,0,1,4,.16h-.14l21.83,1.15-21.82,1.16h-.14a12.27,12.27,0,0,0-3.34.22,13.86,13.86,0,0,0-3.18,1.09,24.67,24.67,0,0,0-5.71,4l-.07.06-.23.14a15.73,15.73,0,0,1-2.14,1.06,9.62,9.62,0,0,1-2.53.65l-.37,0h-.34l-.6,0c-.39,0-.81,0-1.19-.06-.77-.09-1.54-.17-2.29-.33s-1.48-.32-2.22-.5l-1.07-.31c-.36-.1-.71-.21-1.06-.33-7-3.26-14.13-2.19-21.3-2.91-3.07-.36-5.8-6.07-8.19-4.64a65,65,0,0,1-36.43,7.12l-5.79.3Z"/><path class="cls-2" d="M194.81,273.29l-11.57-.61-5.79-.31-5.61-.35h.53c-8.44,5.36-15.35,2.68-22.59-1.71-1.21-.73-2.42-1.51-3.66-2.31-2-1.34-3.8-3.13-6.66-3.13-8.22.36-16.08,1.43-23.94-1.43a4.39,4.39,0,0,0-4.64.36l.36-.36a9.07,9.07,0,0,0-3.28,1.87,21.36,21.36,0,0,1-3.61,1.69,16.41,16.41,0,0,1-3.89.88,14.56,14.56,0,0,1-4-.16h.14L74.8,266.58l21.82-1.16h.14a12.27,12.27,0,0,0,3.34-.22,13.86,13.86,0,0,0,3.18-1.09,19.9,19.9,0,0,0,3-1.76c.95-.68,1.86-1.43,2.75-2.18,5.11-1.74,9.75.4,14.75,1.47a25.07,25.07,0,0,0,8.93-.36c4.64-1.07,9.29-2.86,13.77-2.5a4.74,4.74,0,0,1,2.69,1.27c2.38,2.06,4,5.88,6.86,5.88,5.46.36,9.89-4.64,15.53-4.86l3-.14,2.89-.15,5.79-.31,11.57-.61Z"/><path class="cls-2" d="M297.22,251.44a11.57,11.57,0,0,0,.05-2.36,8.72,8.72,0,0,1-.7-2,12.72,12.72,0,0,0-1.07-2.47,3.25,3.25,0,0,0-3.06-1.23c-.21.05-.38.27-.27.43.38.64,0,1.34.16,2a3.3,3.3,0,0,1,0,1.45c-.21.54.27,1.07-.11,1.55.21.43-.05.86-.05,1.29.32.43.16,1,.16,1.45.05.86,0,1.66.05,2.52a20.63,20.63,0,0,0,.05,2.57c.16.8,0,1.61.11,2.36.11,1.18.05,2.41.16,3.59V265c0,.32-.11.7.11.86a1.12,1.12,0,0,0,1.07-.27c.21.16.37-.27.48-.32.54-.27.86-.48,1-1s.7-.91.86-1.55a15.4,15.4,0,0,0,.64-4.45,9.71,9.71,0,0,0,.32-3.27,5.17,5.17,0,0,1,.16-2,.59.59,0,0,0,0-.43A2.49,2.49,0,0,1,297.22,251.44Z"/><path class="cls-2" d="M400.09,251.44a11.57,11.57,0,0,0,.05-2.36,8.72,8.72,0,0,1-.7-2,12.7,12.7,0,0,0-1.07-2.47,3.25,3.25,0,0,0-3.06-1.23c-.21.05-.38.27-.27.43.38.64,0,1.34.16,2a3.3,3.3,0,0,1,0,1.45c-.21.54.27,1.07-.11,1.55.21.43-.05.86-.05,1.29.32.43.16,1,.16,1.45.05.86,0,1.66.05,2.52a20.63,20.63,0,0,0,.05,2.57c.16.8,0,1.61.11,2.36.11,1.18.05,2.41.16,3.59V265c0,.32-.11.7.11.86a1.12,1.12,0,0,0,1.07-.27c.21.16.38-.27.48-.32.54-.27.86-.48,1-1s.7-.91.86-1.55a15.39,15.39,0,0,0,.64-4.45,9.7,9.7,0,0,0,.32-3.27,5.18,5.18,0,0,1,.16-2,.59.59,0,0,0,0-.43A2.49,2.49,0,0,1,400.09,251.44Z"/><path class="cls-2" d="M217.25,251.44a11.57,11.57,0,0,0,.05-2.36,8.72,8.72,0,0,1-.7-2,12.7,12.7,0,0,0-1.07-2.47,3.25,3.25,0,0,0-3.06-1.23c-.21.05-.38.27-.27.43.37.64,0,1.34.16,2a3.3,3.3,0,0,1,0,1.45c-.21.54.27,1.07-.11,1.55.21.43-.05.86-.05,1.29.32.43.16,1,.16,1.45.05.86,0,1.66.05,2.52a20.63,20.63,0,0,0,.05,2.57c.16.8,0,1.61.11,2.36.11,1.18.05,2.41.16,3.59V265c0,.32-.11.7.11.86a1.12,1.12,0,0,0,1.07-.27c.21.16.38-.27.48-.32.54-.27.86-.48,1-1s.7-.91.86-1.55a15.38,15.38,0,0,0,.64-4.45,9.7,9.7,0,0,0,.32-3.27,5.18,5.18,0,0,1,.16-2,.59.59,0,0,0,0-.43A2.49,2.49,0,0,1,217.25,251.44Z"/><path class="cls-2" d="M418.31,270.84c-.27-.86-.16-1.77-.48-2.52a10.63,10.63,0,0,1-.54-2.95,3.27,3.27,0,0,1-.16-.7,25.1,25.1,0,0,0-.48-2.89c-.21-1.23-.27-2.47-.59-3.64a27.54,27.54,0,0,0-.32-2.95,10.09,10.09,0,0,0-.27-1.77c0-.05-.05-.05-.05-.11l-.11.11-.32,2.52a39.36,39.36,0,0,0-.54,4.4v.11c-.32,1.55-.43,3.11-.7,4.66a13.68,13.68,0,0,0-.27,1.45,9.85,9.85,0,0,1-.16,1.77c-.21.59-.11,1.29-.27,1.93-.16.8-.11,1.66-.32,2.47,0,.11.16.32.27.27a1.57,1.57,0,0,1,.86-.21h1.93a9.42,9.42,0,0,0,2.47,0c.27-.05.43-.21.38-.48A11.49,11.49,0,0,1,418.31,270.84Z"/><path class="cls-2" d="M501.51,231.52H201.88a9.36,9.36,0,0,0-9.36,9.36v48.8a9.36,9.36,0,0,0,9.36,9.36H501.51a9.36,9.36,0,0,0,9.36-9.36v-48.8A9.36,9.36,0,0,0,501.51,231.52ZM222.82,254.07v1.77a6.15,6.15,0,0,1-.38,2.41,2.54,2.54,0,0,0-.05.91,6.19,6.19,0,0,1-.64,2.14c-.16.59-1.39,2.2-1.34,2.84a.41.41,0,0,1-.11.27,16.26,16.26,0,0,0-1.66,1.66,10,10,0,0,1-2,1.29,15.19,15.19,0,0,1-3.59.86.52.52,0,0,0-.32.48v.64c0,2.73,0,5.47.05,8.2v5.15c0,.64.32,1.29.11,2-.05.05.05.16.05.27.11.38.32.54.64.43a8.28,8.28,0,0,1,2.57,0c.54.21.27.86.43,1.29a.46.46,0,0,1-.27.59,18.86,18.86,0,0,1-2.47,0,2.43,2.43,0,0,0-1.61.21.57.57,0,0,1-.43,0,9.33,9.33,0,0,0-3.64-.05,1.11,1.11,0,0,1-.59-.05,3.31,3.31,0,0,0-1.77.05,4.38,4.38,0,0,1-1.18.11c-1,0-1.18-.16-1.18-1.23.05-.32.16-.48.43-.48.75-.05,1.5-.05,2.25-.11.48,0,.59-.05.59-.48a47.77,47.77,0,0,0-.11-5.52c0-.05-.05-.16,0-.27a2.64,2.64,0,0,0,.11-1.29v-7.83a4.36,4.36,0,0,0-.05-1.18,1.79,1.79,0,0,1-.11-1.29c.16-.38-.11-.75.05-1.18a2.82,2.82,0,0,0,0-1.88,1.26,1.26,0,0,0-.11-.43c-.16-.43.27-.86.11-1.29a2.81,2.81,0,0,1-.05-1.34,7.13,7.13,0,0,0,0-1.07,5.71,5.71,0,0,1,.11-2.68c.11-.27-.05-.54-.11-.86-.11-.59.27-1.18,0-1.82a5.46,5.46,0,0,1-.05-2.09c-.05-.64-.05-1.29-.05-1.93-.05-2.36,0-4.72,0-7.08,0-.38-.16-.54-.59-.54H205v.05h-.64c-.8.05-.8.05-1-.86a.7.7,0,0,1,.59-.86,2,2,0,0,1,.59-.05c.8-.05,1.66-.05,2.52-.05a1.65,1.65,0,0,0,1-.16c.64.11,1.23-.16,1.88.05a9.51,9.51,0,0,0,1.77.11c2.25.16,6.59.27,7.88,2.2a7.61,7.61,0,0,1,2.3,4c.16.91.86,2.79,1,3.65.11.38-.27.8,0,1.13S222.82,253.64,222.82,254.07Zm24-10.56a10.72,10.72,0,0,0-1.34.05.59.59,0,0,0-.64.64c0,1,.05,2.3,0,3.22-.05.64.27,1.23.05,1.93a8.93,8.93,0,0,0-.05,2.09c0,.64-.05,1.29,0,1.93a10.15,10.15,0,0,0,.21,3.11,2.54,2.54,0,0,1,.05.91c0,2.2-.05,4.4,0,6.59.05.48-.27,1-.05,1.55a5.63,5.63,0,0,1,.05,1.66c0,.59.05,1.18.05,1.77v3.32a2.17,2.17,0,0,0,0,.59,6.63,6.63,0,0,1,.27,2.52c0,1.55-.05,3.16-.05,4.77a2.25,2.25,0,0,1-.21,1.45,1.18,1.18,0,0,0-.05.43,5.85,5.85,0,0,1-.59,2.89,4.42,4.42,0,0,1-1.88,2.3,8.59,8.59,0,0,1-1.61.7,16.63,16.63,0,0,1-2.3,0c-1.07-.32-2.2-.16-3.16-.7a4.73,4.73,0,0,1-3.27-2.41,11,11,0,0,1-1.23-2.2,9.9,9.9,0,0,1-.54-3.06,25.26,25.26,0,0,1,0-4.93,14.64,14.64,0,0,1,0-3.43c0-1.23-.05-2.41-.05-3.64a6,6,0,0,0-.21-2.36,1,1,0,0,1,.11-.86.65.65,0,0,0-.05-.7c-.05-.05-.11-.21-.05-.27.27-.7-.05-1.45.11-2.14a29.85,29.85,0,0,0,.05-5.79,8.13,8.13,0,0,1,.05-2,3.51,3.51,0,0,0,0-.75c.05-.59-.27-1.18-.11-1.72a8.1,8.1,0,0,0,.11-1.61c.11-.64-.32-1.23-.11-1.88-.27-.38-.05-.75.05-1.13-.32-.48-.16-1.45-.21-2a2,2,0,0,1-.05-.59.34.34,0,0,0-.43-.27c-.05,0-.11-.05-.16,0a3.92,3.92,0,0,1-1.77.11c-.38.05-.48-.05-.59-.48l-.16-.43a.68.68,0,0,1,.59-.8l3.22.11.54-.11c1.13,0,2.3,0,3.43.05.59,0,1.13-.11,1.77-.05a3.5,3.5,0,0,0,.75,0,.81.81,0,0,1,.64.59,2.16,2.16,0,0,1,0,.59.63.63,0,0,1-.54.59,7.17,7.17,0,0,1-1.07.05c-.43.05-.48-.16-.48.32,0,1.77,0,4,.05,5.74a1.06,1.06,0,0,0,.11.59,1.34,1.34,0,0,1,0,1,2.36,2.36,0,0,0-.11.86q-.08,3.38,0,6.75a5.1,5.1,0,0,0,.16,2.2c-.38.64.32,1.34-.11,2-.05.05.11.27.05.43,0,.43.32.91-.05,1.39a2.61,2.61,0,0,1,.21,1.29v2.84c0,.54-.21,1.77-.05,1.5s.05,2,.05,2.95a8,8,0,0,0,0,3.16v3.48s.16,1,.37,2.89a4.63,4.63,0,0,0,2.68,2.63,13.34,13.34,0,0,0,2.09-.11,2.62,2.62,0,0,0,1.66-2.31,5.38,5.38,0,0,1,.21-1.29c-.38-.43.05-.86.05-1.29s.05-.86.05-1.34a3.15,3.15,0,0,0,.11-.7,2.39,2.39,0,0,0,.05-.86c-.05-.38-.32-.75-.32-1.13s.16-.75.16-1.18c-.05-.27.05-.64-.11-.86-.21-.48,0-1-.11-1.45a13.08,13.08,0,0,1,0-1.45c.05-.91-.05-1.77-.05-2.68a5.77,5.77,0,0,1,.21-2.52,2.16,2.16,0,0,0,0-.59c.05-.38-.27-.7,0-1.13s-.27-.64-.05-1c-.21-.75.11-1.55-.05-2.36,0-.05.11-.16.11-.27a10.69,10.69,0,0,1-.11-3.91c.05-.21-.05-.32-.05-.43-.05-.86-.11-1.72-.11-2.52V248.6a12,12,0,0,0-.11-2c-.05-.32.16-.91.05-1.23l-.21-1c0-.27.11-.64-.21-.75a2.7,2.7,0,0,0-1.13.05.58.58,0,0,1-.27-.05,1.32,1.32,0,0,1-.48-1.18,1.42,1.42,0,0,1,.27-.32.91.91,0,0,1,.27-.11.68.68,0,0,0,.32-.05,16.28,16.28,0,0,0,3.22-.11,8.07,8.07,0,0,0,2,.11c.48.05.32.48.48,1A.47.47,0,0,1,246.78,243.51ZM279,286.17c0,.59,0,1.18-.54,1.29a1.65,1.65,0,0,1-.86-.11,11.08,11.08,0,0,1-1.34,0c-.16,0-.38.11-.54.11a8.08,8.08,0,0,1-2.79-.21.24.24,0,0,0-.27,0c-.43.05-.8.16-1.23.21s-.8-.21-1.29-.11a11.24,11.24,0,0,0-1.34.11c-.64.11-1-.16-1-.86a1.49,1.49,0,0,1-.05-.48c.05-.16.11-.48.32-.54a11.06,11.06,0,0,1,1.23-.16c.27-.05.64.21.86.05s-.05-.8.05-1.13a25.29,25.29,0,0,1-.16-4.5c0-1.45.05-2.89,0-4.34s0-2.89-.05-4.34a5,5,0,0,0,.05-1.55,6.51,6.51,0,0,1,0-1.77v-8.42c0-1.77-.05-3.48-.05-5.25a8.64,8.64,0,0,1-.05-2c0-.11.05-.48-.11-.48a.28.28,0,0,1-.21-.11c-.05.05-.11.11-.11.16l-.64,3.48c-.11.7-.16,1.45-.32,2.2s-.11,1.39-.27,2a11.37,11.37,0,0,0-.27,2.68,11.19,11.19,0,0,0-.21,1.88c-.38.43.05.86-.11,1.29a7.68,7.68,0,0,0-.21,1.18,14.07,14.07,0,0,0-.32,2.63c0,.11-.05.21-.05.32-.11.32-.43.59-.32.91s-.05.59-.05.86a38.78,38.78,0,0,0-.43,4.29c.05.7-.21,1.29-.21,1.93a7.89,7.89,0,0,1-.21,1.93c-.16.48-.11,1.07-.32,1.55a1.15,1.15,0,0,0,.11.59c0,.11.05.21-.05.27a1.43,1.43,0,0,1-1.39.59,2.14,2.14,0,0,0-1-.11c-.32.11-.64-.21-.75-.64-.32-1.39-.7-2.73-.91-4.18a9.94,9.94,0,0,0-.7-3.32c-.21-1.55-.8-3.06-1-4.61a1.9,1.9,0,0,0-.16-.59,6.07,6.07,0,0,1-.59-2.2c-.48-1.77-.64-3.27-1-5.09s-.91-3.81-1.29-5.74c-.27-1.23-.48-2.52-.64-3.81,0-.05-.16-.11-.21-.16a.41.41,0,0,0-.11.21c-.05,1.72-.05,3.43-.05,5.15a3.32,3.32,0,0,1-.11,1.45c-.05.11,0,.21,0,.27a4.29,4.29,0,0,1,.11,1.66c.05,2.09.05,4.18.05,6.27a2.17,2.17,0,0,0,0,.59,11.59,11.59,0,0,1,.21,3.59,4.12,4.12,0,0,1-.16,1.61,4.35,4.35,0,0,0,0,1.18c0,.11.11.21.11.27a2.82,2.82,0,0,1,0,1.34c-.11.43.11.75.05,1.18a3.5,3.5,0,0,1-.11,1.29.76.76,0,0,0-.05.75c.38.59-.11,1.23.16,1.88.05.05,0,.16-.05.27a1.54,1.54,0,0,0-.05,1.29.58.58,0,0,1,0,.59,2.74,2.74,0,0,0,0,1.61,6.73,6.73,0,0,1,.16,1c0,.21.11.38.32.38.8-.05,1.39.21,2.14-.11.21.05.64-.05.64.16v.59c0,.7-.27,1-.86,1.13a6.14,6.14,0,0,1-1,.05c-.91,0-1.88-.27-2.41,0l-.8-.05c-.8.05-1.45,0-2.14,0a.41.41,0,0,1-.43-.32,3.13,3.13,0,0,1-.11-.7c-.05-.59,0-.8.54-.8a14,14,0,0,0,1.5.05,2.2,2.2,0,0,0,.59-.05c.05,0,.11-.11.11-.21a18.13,18.13,0,0,1-.16-2.95c-.05-.54.32-1,.11-1.55a3.47,3.47,0,0,1-.05-1.66,16.14,16.14,0,0,1,.16-3.59,6.92,6.92,0,0,1-.16-2.36,5.26,5.26,0,0,1,.16-2,12.27,12.27,0,0,0-.11-3.43,6.51,6.51,0,0,1-.05-1c-.05-4-.05-8-.05-12a21.77,21.77,0,0,0-.16-3.75,9.88,9.88,0,0,0,.16-2.2v-4.34c0-.48-.11-.59-.59-.59h-1.55c-.38-.05-.48-.27-.64-.64s0-.48-.05-.7a.51.51,0,0,1,.48-.59,6.85,6.85,0,0,0,2.95-.05,7.92,7.92,0,0,1,2-.11,4.2,4.2,0,0,0,1.82-.11c.27-.16,1.29.16,1.61.21s.43.86.64,1.82a5.36,5.36,0,0,0,.32,1.61,5.37,5.37,0,0,1,.21,1.29,3.13,3.13,0,0,0,.21,1,33.11,33.11,0,0,1,.64,3.91,12.15,12.15,0,0,0,.32,1.61c.38,1.82.59,3.65.91,5.41s.59,3.32.91,4.93c.27,1.18.48,2.36.7,3.48l.32,1,.11.11c.05-.11.11-.16.11-.21a10.07,10.07,0,0,1,.27-1.77c.16-.48,0-1.07.27-1.61a.4.4,0,0,0,.05-.27,33.84,33.84,0,0,1,.32-4,18.51,18.51,0,0,1,.38-2.95,6.74,6.74,0,0,0,.21-1.45,7.68,7.68,0,0,1,.21-1.18l.8-4c.27-1.34.54-2.63.7-4a27.41,27.41,0,0,1,.8-4.18.6.6,0,0,1,.38-.43,1.81,1.81,0,0,1,.91-.27c1.18.05,2.41,0,3.59,0a2.26,2.26,0,0,0,1.18-.16c.32-.11.54.16.8.16h1.93a.49.49,0,0,1,.54.43,1,1,0,0,1-.8,1.39h-1.5a.3.3,0,0,0-.38.32,7.9,7.9,0,0,0-.05,1.13,4.7,4.7,0,0,1-.11,1.93,7.78,7.78,0,0,0-.11,1.93v6.33a5,5,0,0,0,.21,1.77,2.76,2.76,0,0,1-.05,1.61,1.77,1.77,0,0,0-.05,1.18.41.41,0,0,1,.11.27,2.22,2.22,0,0,0,0,1.55,5.63,5.63,0,0,1,.05,1.66v1.5c0,.54-.05,1.07,0,1.66.05.38-.27.64-.05,1.13a2.83,2.83,0,0,1,.05,1.18c0,2.2,0,4.4.05,6.59a12.12,12.12,0,0,0,.16,3.11,3.77,3.77,0,0,1,.05,1.34c-.11.43.05.86-.11,1.29a.19.19,0,0,1-.05.11,26.9,26.9,0,0,1,.21,3.59c.05.27.16.38.59.38.27-.05,1.23.05,1.61.05a.39.39,0,0,1,.38.32Zm23.8-32.11v1.77a6.15,6.15,0,0,1-.38,2.41,2.54,2.54,0,0,0-.05.91,6.19,6.19,0,0,1-.64,2.14c-.16.59-1.39,2.2-1.34,2.84a.41.41,0,0,1-.11.27,16.21,16.21,0,0,0-1.66,1.66,10,10,0,0,1-2,1.29,15.19,15.19,0,0,1-3.59.86.52.52,0,0,0-.32.48v.64c0,2.73,0,5.47.05,8.2v5.15c0,.64.32,1.29.11,2-.05.05.05.16.05.27.11.38.32.54.64.43a8.28,8.28,0,0,1,2.57,0c.54.21.27.86.43,1.29a.46.46,0,0,1-.27.59,18.86,18.86,0,0,1-2.47,0,2.43,2.43,0,0,0-1.61.21.57.57,0,0,1-.43,0,9.33,9.33,0,0,0-3.65-.05,1.12,1.12,0,0,1-.59-.05,3.31,3.31,0,0,0-1.77.05,4.38,4.38,0,0,1-1.18.11c-1,0-1.18-.16-1.18-1.23.05-.32.16-.48.43-.48.75-.05,1.5-.05,2.25-.11.48,0,.59-.05.59-.48a47.72,47.72,0,0,0-.11-5.52c0-.05-.05-.16,0-.27a2.64,2.64,0,0,0,.11-1.29v-7.83a4.36,4.36,0,0,0-.05-1.18,1.79,1.79,0,0,1-.11-1.29c.16-.38-.11-.75.05-1.18a2.82,2.82,0,0,0,0-1.88,1.26,1.26,0,0,0-.11-.43c-.16-.43.27-.86.11-1.29a2.81,2.81,0,0,1-.05-1.34,7.17,7.17,0,0,0,0-1.07,5.7,5.7,0,0,1,.11-2.68c.11-.27-.05-.54-.11-.86-.11-.59.27-1.18,0-1.82a5.46,5.46,0,0,1-.05-2.09c-.05-.64-.05-1.29-.05-1.93-.05-2.36,0-4.72,0-7.08,0-.38-.16-.54-.59-.54h-.86v.05h-.64c-.8.05-.8.05-1-.86a.7.7,0,0,1,.59-.86,2,2,0,0,1,.59-.05c.8-.05,1.66-.05,2.52-.05a1.65,1.65,0,0,0,1-.16c.64.11,1.23-.16,1.88.05a9.51,9.51,0,0,0,1.77.11c2.25.16,6.59.27,7.88,2.2a7.61,7.61,0,0,1,2.3,4c.16.91.86,2.79,1,3.65.11.38-.27.8,0,1.13S302.8,253.64,302.8,254.07Zm28,33c-.05.21-.21.43-.38.38-.59-.32-.43.16-1,.11s-3.54,0-4.07-.16a5.74,5.74,0,0,1-2.41-2.2c-.43-1.34-.48-.91-.91-2.2-.59-2-1.45-3.86-2-5.84a5.26,5.26,0,0,1-.27-.86c-.05-.16,0-.32-.11-.43a10.49,10.49,0,0,1-.7-2.84c-.21-.91-.7-1.77-.86-2.68a20.43,20.43,0,0,0-.7-2.41c-.27-1.18-.32-2.14-.54-3.38,0-.05-.05-.11-.11-.16a.41.41,0,0,0-.21-.11c-.05-.05-.38.11-.38.16a11.08,11.08,0,0,0-.11,2.3,5.78,5.78,0,0,1-.11,1.93c-.11.64.16,1.29.11,1.93a13.57,13.57,0,0,1-.16,2.52c0,.16.05.27.05.37a15.46,15.46,0,0,1-.05,4.45c-.05.27.21.43.16.7a3.29,3.29,0,0,0-.05.75c.11.64-.16,1.23,0,1.88a9.77,9.77,0,0,1,.05,1.77v2c0,.32.16.43.48.43h2.41c.75-.05,1.13.54.86,1.29a2,2,0,0,1-.16.54c-.05.16-.16.27-.32.21a10.36,10.36,0,0,0-3.16-.21c-.54.05-1.13.05-1.66.16a5,5,0,0,1-2.52-.11.59.59,0,0,0-.43,0,4.13,4.13,0,0,1-2-.05,2.21,2.21,0,0,0-1.18.21.77.77,0,0,1-.7-.43,3.79,3.79,0,0,1-.05-.75.65.65,0,0,1,.64-.8c.7-.05,1.34-.05,2-.05.21,0,.32-.16.32-.38a27.26,27.26,0,0,0-.11-4.18c.21-.43,0-.86.05-1.29a15.08,15.08,0,0,0-.05-3.11,10.39,10.39,0,0,1,.11-1.29v-3.7c.11-1.72-.11-3.86,0-5.15-.11-.27-.21-2.68,0-2.68s-.05-2.3,0-3.38v-5.09a6.13,6.13,0,0,1,0-1.72,8.61,8.61,0,0,0,0-1.66V250a7.4,7.4,0,0,0-.16-1.88,20.62,20.62,0,0,1-.11-2.57V244c0-.27-.11-.38-.38-.38h-1.61a2.61,2.61,0,0,1-.64-.05.44.44,0,0,1-.32-.21c-.54-1.18-.27-1.5,1-1.5h4.18v-.05h3.91a14.05,14.05,0,0,1,1.5.05c.32,0,.43.16.54.43a2.41,2.41,0,0,0,.16.59.69.69,0,0,1-.43.7h-.16c-.48.11-1.61-.16-2,.21a10.31,10.31,0,0,1-.05,1.29,11.59,11.59,0,0,1-.05,1.93c-.11.54.11,1.13-.05,1.66s.21.75.11,1.18a3.88,3.88,0,0,0-.05,1.13c.11,1.66.11,3.32.11,4.93v4c.05,0,.32,0,.32-.05a26,26,0,0,0,1.82-4.34c.27-1.07,1.23-2.41,1.39-3.48s.7-1.72,1-2.68c.59-1.88,1.55-3.43,2.14-5.31.11-.21,0-.38-.27-.38s-1.18.11-1.29-.05a2.12,2.12,0,0,1-.16-1.18.94.94,0,0,1,.48-.54,13.56,13.56,0,0,1,1.5-.05h2.68c.38,0,.91.16,1.29-.05.21-.11.21-.11.32.11a1.15,1.15,0,0,1,.16,1.29,1.32,1.32,0,0,1-1.34.43c-.11-.05-.32,0-.48-.05-.32-.05-.54-.05-.64.21a5.94,5.94,0,0,0-.75,1.55,3,3,0,0,1-.32,1.18,15.35,15.35,0,0,0-1.18,2.52c-.32.86-.54,1.72-.91,2.52a18.33,18.33,0,0,0-.91,2.14,21,21,0,0,1-1.23,3.22c-.43,1.18-.8,1.72-1.23,2.89-.11.21-.54,1.23-.38,1.39-.16.21-.32.48-.21.64,1.45.43,1.29.7,2,.86a13,13,0,0,1,2.2,2.57c.11.32.16.7.27,1a23.09,23.09,0,0,1,1,3.27c.11.48.7,1.34.8,1.77.27,1.29.54,2.57.91,3.86.48,1.61,1.23,3.11,1.82,4.72a10.61,10.61,0,0,1,.43,1.39c.32,1.18.32,1.18.7,2.36.21.64.48,1.55,1.18,1.77a3.4,3.4,0,0,0,1.39.21C331.15,285.53,331,286.34,330.78,287.09Zm10.51-39.29c-.27.91.43,1.82-.05,2.73a3.92,3.92,0,0,1,.16,1.77,8.67,8.67,0,0,1,.05,1.18,8.88,8.88,0,0,0-.16,1.18,7.92,7.92,0,0,0,.16,1,5.94,5.94,0,0,1-.16.86c-.11.21.11.48.05.7a.91.91,0,0,0,0,.54,3.54,3.54,0,0,1,0,1.5c-.11.48.05,1-.11,1.39a3.52,3.52,0,0,0-.05,1.07c-.05,2.2,0,4.4-.05,6.59,0,.59.21,1.18-.21,1.72a19.14,19.14,0,0,1,.21,4.61l.16.75a4.7,4.7,0,0,1,.11.86,5.51,5.51,0,0,0-.05,1.34c.11.32-.21.75,0,1.13-.27.43.11.86.05,1.29a.59.59,0,0,0,0,.43c.11.43-.38.75-.11,1.13s.05.8.11,1.18-.32,1-.05,1.39a.79.79,0,0,0,0,.7c.16.64.11.64.7.54a3.75,3.75,0,0,1,.75-.16c1.55,0,1.29.05,1.29,1.45,0,.38-.38.75-.7.64-.59-.21-1.13.05-1.72.05-1.07-.05-2.09,0-3.16-.05a10.08,10.08,0,0,1-2.2.11c-.7-.11-1.39-.05-2.09-.11h-1c-.8.05-.8.05-1.07-.8-.16-.54.05-.91.59-1h1.93c.38-.05.48-.16.48-.59a15.8,15.8,0,0,0-.05-2.25c-.05-.54.27-1,.11-1.55a7,7,0,0,1-.05-1.5V278a4.17,4.17,0,0,1,.21-1.61.76.76,0,0,0-.05-.59,3.35,3.35,0,0,1-.16-1.45,23.89,23.89,0,0,1,.16-3.91,18,18,0,0,1-.21-3.81V256.53a63.65,63.65,0,0,1,.05-7.18c-.27-.54-.16-2.95-.05-5.25,0-.32-.11-.43-.43-.43-.64,0-1.23,0-1.82-.05a.34.34,0,0,1-.38-.38,2,2,0,0,1-.05-.59c0-.48.21-.75.7-.75a13.75,13.75,0,0,0,2.57,0c.91-.16.11,0,1.07,0a4,4,0,0,1,1.61.05,13.15,13.15,0,0,0,1.45.11,4.41,4.41,0,0,0,2-.11,4.43,4.43,0,0,1,1.45.05c.91.21,1,.43.8,1.34a.41.41,0,0,1-.43.32h-2.09c-.21.05-.38.11-.38.38A17.58,17.58,0,0,0,341.28,247.79Zm27.71-5c-.05.54-.32.8-.75.8h-.32c-1.61,0-1.45-.16-1.45,1.34a31.18,31.18,0,0,0,.16,3.16c0,.21-.05.38-.05.54a3.61,3.61,0,0,0-.05,1.07,3.71,3.71,0,0,1,0,1.72,2.36,2.36,0,0,0,.11.86c.16.32-.05.59,0,.86a1.56,1.56,0,0,1,0,.86,1.7,1.7,0,0,0-.11.75,10.94,10.94,0,0,1,0,1.88,13.63,13.63,0,0,0-.05,2.09c0,.64.11,1.18.11,1.82s-.11,1.45-.11,2.09v1.93c0,.7.05,1.39.05,2.09v2a2.44,2.44,0,0,0,.32,1.18c-.16.54.27,1.13-.11,1.72-.11.21,0,.59,0,.86V279c0,.54.05,1.07.11,1.61.21,2.09-.27,3.48-.11,6.22-.05.21-.11.32-.38.38a4.45,4.45,0,0,1-1.88.11,3.11,3.11,0,0,0-1.72,0c-1,.05-1-.11-1.29-.54a2.25,2.25,0,0,1-.43-1.13c0-.38-.48-.91-.59-1.23-.11-.48-.11-.86-.21-1.29a9.76,9.76,0,0,1-.38-1.34,7.9,7.9,0,0,0-.43-1.5c-.21-.91-.48-1.82-.75-2.73,0-.05-.11-.16-.11-.27a14.26,14.26,0,0,0-.91-4.18c-.16-.48-.16-1-.32-1.45s-.43-.91-.16-1.45a8.54,8.54,0,0,1-.54-1.23,1.87,1.87,0,0,1-.27-.7,21.88,21.88,0,0,0-.7-3.64c-.16-1.18-.43-2.3-.59-3.48s-1-4.07-1.23-5.15c-.16-1.45-.21-2.2-.54-2-.05,0,0,3.81,0,3.86.05.43-.16.91.11,1.39.05,1.07.05,2.2.11,3.27-.21,3.64.32,5.74,0,10.35a3.32,3.32,0,0,0,.16,1.61,26.77,26.77,0,0,1-.05,3.59,62.28,62.28,0,0,1,0,6.33c.05.16.16,1.55.32,1.5a4.61,4.61,0,0,0,.86,0c1.45-.21,1.66.11,1.77.8,0,.27-.05.7-.32.7a10.08,10.08,0,0,1-2.2.11,14.46,14.46,0,0,0-2.14.05,4.14,4.14,0,0,0-1.39.16,1.1,1.1,0,0,1-1.07-.05c-.21-.11-.48-.16-.59-.43a1.65,1.65,0,0,1,0-1,.29.29,0,0,1,.21-.16c.64-.05,1.29-.05,1.93-.05s.64-.11.64-.59c0-2.14.05-4.29,0-6.49,0-1.29-.05-2.57-.05-3.86a2.19,2.19,0,0,0-.16-1.18.75.75,0,0,1,.05-.75c.16-.27-.05-.59,0-.86a1,1,0,0,0-.05-.86.4.4,0,0,1-.05-.27,3.3,3.3,0,0,0,.11-1,3.3,3.3,0,0,1-.11-1,7.15,7.15,0,0,1,0-1.07c0-.38.21-.75.11-1.13s-.21-.75-.05-1c.21-.43-.21-.8.05-1.13l-.16-5.52a2.42,2.42,0,0,0-.16-.59,1.35,1.35,0,0,1-.05-1,3.34,3.34,0,0,0,.11-2c-.11-.38.21-.7,0-1s0-.64.05-1a1,1,0,0,0-.05-.7,5.66,5.66,0,0,1,0-2.68,11.66,11.66,0,0,0,.11-1.93V244a.34.34,0,0,0-.38-.38h-1.55a.93.93,0,0,1-.8-1.45,1.52,1.52,0,0,1,.48-.32,5.83,5.83,0,0,1,1-.05,2.54,2.54,0,0,0,.91-.05c.86-.43,1.71.11,2.57.05a9.49,9.49,0,0,1,2.47,0,.34.34,0,0,1,.27.32c.16,1.72.8,3.27,1,4.93a4.07,4.07,0,0,0,.32.86,6.1,6.1,0,0,1,.59,2.14,3.38,3.38,0,0,0,.38,1.61c.38.7.11,1.5.54,2.14.11,1.72.8,3.27,1,4.93.11.7.7,2.36.86,3.06.59,2.14,1,3.54,1.55,5.68.11.38,0,.75.11,1.07a8.86,8.86,0,0,1,.32,1.13c.16.32-.05.64.16,1a2.06,2.06,0,0,1,.32,1c.11,1.18.48,2.36.7,3.48a15.26,15.26,0,0,0,.48,2.25c.05,0,.11.05.16-.11.05-.59,0-1.88,0-2,.11-1.34,0-2.95,0-4.23,0,0,0-.27.05-.27,0-1.07-.21-2.09-.21-3.16a3.51,3.51,0,0,0-.11-1.66.73.73,0,0,1-.05-.59,10.71,10.71,0,0,0,0-4.13,1,1,0,0,1,.05-.43c.43-.91.11-1.82.11-2.73V254.5a3.14,3.14,0,0,1,.27-1.72,4.88,4.88,0,0,1-.27-1.77,16.78,16.78,0,0,0,0-2.84,9.9,9.9,0,0,0-.16-1.77,2.69,2.69,0,0,1,.05-1.72c.11-.16-.05-.38-.11-.59s-.21-.43-.54-.43-.64.16-1,.05a.64.64,0,0,1-.7-.27,1.22,1.22,0,0,1-.21-.86c0-.43.11-.64.54-.7a5.82,5.82,0,0,0,1.66.05,14.24,14.24,0,0,1,3.38-.05,1.34,1.34,0,0,1,.91.16C368.94,242.22,369,242.38,369,242.81Zm36.66,11.26v1.77a6.15,6.15,0,0,1-.38,2.41,2.55,2.55,0,0,0-.05.91,6.2,6.2,0,0,1-.64,2.14c-.16.59-1.39,2.2-1.34,2.84a.41.41,0,0,1-.11.27,16.23,16.23,0,0,0-1.66,1.66,10.06,10.06,0,0,1-2,1.29,15.18,15.18,0,0,1-3.59.86.52.52,0,0,0-.32.48v.64c0,2.73,0,5.47.05,8.2v5.15c0,.64.32,1.29.11,2-.05.05.05.16.05.27.11.38.32.54.64.43a8.28,8.28,0,0,1,2.57,0c.54.21.27.86.43,1.29a.46.46,0,0,1-.27.59,18.86,18.86,0,0,1-2.47,0,2.43,2.43,0,0,0-1.61.21.57.57,0,0,1-.43,0,9.33,9.33,0,0,0-3.65-.05,1.11,1.11,0,0,1-.59-.05,3.31,3.31,0,0,0-1.77.05,4.39,4.39,0,0,1-1.18.11c-1,0-1.18-.16-1.18-1.23.05-.32.16-.48.43-.48.75-.05,1.5-.05,2.25-.11.48,0,.59-.05.59-.48a47.66,47.66,0,0,0-.11-5.52c0-.05-.05-.16,0-.27a2.64,2.64,0,0,0,.11-1.29v-7.83a4.36,4.36,0,0,0-.05-1.18,1.79,1.79,0,0,1-.11-1.29c.16-.38-.11-.75.05-1.18a2.81,2.81,0,0,0,0-1.88,1.26,1.26,0,0,0-.11-.43c-.16-.43.27-.86.11-1.29a2.81,2.81,0,0,1-.05-1.34,7.17,7.17,0,0,0,0-1.07,5.71,5.71,0,0,1,.11-2.68c.11-.27-.05-.54-.11-.86-.11-.59.27-1.18,0-1.82a5.47,5.47,0,0,1-.05-2.09c-.05-.64-.05-1.29-.05-1.93-.05-2.36,0-4.72,0-7.08,0-.38-.16-.54-.59-.54h-.86v.05h-.64c-.8.05-.8.05-1-.86a.7.7,0,0,1,.59-.86,2,2,0,0,1,.59-.05c.8-.05,1.66-.05,2.52-.05a1.65,1.65,0,0,0,1-.16c.64.11,1.23-.16,1.88.05a9.51,9.51,0,0,0,1.77.11c2.25.16,6.59.27,7.88,2.2a7.61,7.61,0,0,1,2.3,4c.16.91.86,2.79,1,3.65.11.38-.27.8,0,1.13S405.66,253.64,405.66,254.07Zm21.87,33.23a11.31,11.31,0,0,1-3,.16h-.64v.05H422.6c-.59-.05-1.18.21-1.66-.11a7.2,7.2,0,0,1-1.82.16.68.68,0,0,1-.7-.7,3.31,3.31,0,0,1-.05-.75.26.26,0,0,1,.16-.32,9.28,9.28,0,0,1,1.71-.16c.32,0,.48-.21.43-.59a4.11,4.11,0,0,0-.11-.8,4.22,4.22,0,0,0-.21-1.5,4.28,4.28,0,0,1-.16-.7,7.71,7.71,0,0,0-.27-2.2l-.16-.91c.05-.7-.48-1.77-.32-1.88s-.21-1.29-.32-1.88c-.05-.27-.16-.32-.38-.32-.59-.27-1.13.05-1.55-.11-.64,0-1.29.05-1.93.05a2.78,2.78,0,0,1-1.61-.16c-.27.16-.59-.11-.86.16-.16.11-.27.16-.32.37-.21,1.34-.48,2.63-.59,4a22.48,22.48,0,0,1-.59,3.22,1.92,1.92,0,0,1-.11.54c-.11.7-.16,1.66-.27,2.36a.35.35,0,0,0,.32.38,8.72,8.72,0,0,0,1.18-.05,1.18,1.18,0,0,1,1,.11,1.37,1.37,0,0,1-.05,1.55,4.41,4.41,0,0,1-.7.38c-.43-.32-1.13-.05-1.55.05-.32-.38-.91-.05-1.29-.16a2.68,2.68,0,0,0-1.72,0c-.48.21-.91-.27-.91-.86v-.27c0-.27.05-.48.27-.59a1.31,1.31,0,0,1,.86-.32c.7.05.8-.16.86-.7.16-1.18.32-2.63.59-3.75a19.75,19.75,0,0,1,.43-2.47,8.13,8.13,0,0,1,.32-2.52c.16-.75.16-1.55.38-2.31a12.42,12.42,0,0,0,.27-2c.21-1.13.21-2.3.38-3.43.16-1.39.37-2.84.59-4.23a20,20,0,0,0,.43-3.06,14.54,14.54,0,0,1,.21-1.61,2.94,2.94,0,0,1,.21-1.5c-.05-.91.32-1.82.32-2.79s.32-1.61.27-2.47a13.21,13.21,0,0,0,.43-2.47,6.86,6.86,0,0,0,.27-1.45,12,12,0,0,0,.38-2.36,4.77,4.77,0,0,1,.16-1.18c.21-1,.32-1.93.54-2.89.11-.54.21-.7.64-.7.7-.05,1.34-.05,2-.05.48.05.75,0,.8.59l.27.91a7.89,7.89,0,0,0,.43,2.73c.21,1.45.43,2.84.7,4.23.05.38.16.75.21,1.13a3.14,3.14,0,0,0,.21,1c0,.05.05.11.05.16A9.35,9.35,0,0,0,421,255a24.91,24.91,0,0,1,.59,2.73,17.34,17.34,0,0,1,.38,2.79,4,4,0,0,0,.27,1.34,16.31,16.31,0,0,1,.48,2.89,3.15,3.15,0,0,0,.11.7c.27,1.34.59,2.68.75,4.07a1.49,1.49,0,0,0,.05.7c.48,1.34.38,2.84.8,4.18,0,1.5.75,4.34.64,4.4-.27.16.27.59.75,4.88a12.38,12.38,0,0,0,.32,1.5.33.33,0,0,0,.54.21,1.33,1.33,0,0,1,.48-.05c.91-.11,1,0,1,1.13A.77.77,0,0,1,427.53,287.3Zm21-38a5.17,5.17,0,0,1,0,.91c0,1.72-.21,2.25-1.5,2.25a.29.29,0,0,1-.32-.21,17.5,17.5,0,0,1-.7-2.89,19.17,19.17,0,0,0-.75-2.89c-.27-.8-.48-1.66-.7-2.52a.45.45,0,0,0-.48-.32c-.59-.05-1,.16-1.61-.11-.05-.05-.38.21-.38.32,0,.64-.16,1.23-.16,1.88a13.72,13.72,0,0,1-.21,4.18c0,.16-.05.32,0,.43.43,1.39.11,2.79.21,4.18a4.34,4.34,0,0,0,.16,2c.11.27-.32.54-.16.86s.11.54.05.86a2.74,2.74,0,0,0-.05,1.61,4.92,4.92,0,0,1-.11,2.79,5.21,5.21,0,0,0-.05.86c.38.21-.16.54.05.75a1.76,1.76,0,0,1,.21,1c-.05,1.5-.05,3-.05,4.5a55.07,55.07,0,0,0,.11,5.95,21.11,21.11,0,0,1-.11,5.2c-.05.38.21.59.16,1-.05.8,0,1.82-.05,2.63v.75a.37.37,0,0,0,.38.38h1.77c.59.05.59.59.75,1.23.05.21-.11.54-.32.54a5.19,5.19,0,0,1-.91.05h-2.95a2.19,2.19,0,0,0-1.18.16.68.68,0,0,1-.32.05,7.28,7.28,0,0,0-2.63-.21c-.91-.05-1.82,0-2.68,0-.16,0-.32-.05-.48-.05-.48-.05-.75-.27-.75-.75a1.09,1.09,0,0,1,0-.59c0-.21.11-.38.32-.38.75-.05,1.5-.05,2.25-.05.32,0,.43-.11.43-.48,0-1.93.38-4.45.11-6.06v-2.68a4.4,4.4,0,0,0-.11-1.18c-.05-.38.21-.75-.05-1.13s0-.59.11-.86-.11-.48-.11-.7c0-.54.16-1,.11-1.5s0-1-.11-1.45.38-1,.05-1.45a4.37,4.37,0,0,0,0-1.45,1.24,1.24,0,0,1,.16-.86.75.75,0,0,0,0-.59c-.21-.38-.05-.75-.16-1.18s.32-.59.16-1,.21-.64-.05-1c.27-.32-.05-.64-.05-1s.21-.8.05-1.29a3.76,3.76,0,0,1-.05-1.34v-1.34a5,5,0,0,0-.16-1.77,2.92,2.92,0,0,1-.05-1.18,11.59,11.59,0,0,0,.05-1.93,11.61,11.61,0,0,1,0-1.93c0-.7.05-1.39.05-2.09v-2c0-.64.05-1.29.05-1.93a1,1,0,0,0-.05-.43.3.3,0,0,0-.27-.32c-.32,0-.59.21-.86.21-.91,0-1.77-.32-2,.54l-.54,1.88a5.65,5.65,0,0,0-.27,1c-.21,1.13-1.07,4-1.29,5.2-.05.11-.16-.05-.27,0a.2.2,0,0,1-.16.05c-.27-.11-.59.05-.91,0a.74.74,0,0,1-.38-.43,7.06,7.06,0,0,1-.11-1.5l.05-3.06h-.05c0-.86.05-1.39.11-2.25l-.05-.75a12.64,12.64,0,0,1,.11-2,.72.72,0,0,1,.8-.75,2.21,2.21,0,0,1,1,.11,1.65,1.65,0,0,0,.43.11,1,1,0,0,1,1-.11,9.75,9.75,0,0,0,2.14-.11,13.75,13.75,0,0,1,2.57,0c.11,0,.16.05.27.05a3.06,3.06,0,0,1,1.55,0,8.61,8.61,0,0,0,1.66.05h3.16a8.69,8.69,0,0,0,1.18-.05,1.21,1.21,0,0,1,1,0A18.5,18.5,0,0,0,448,242c.27.11.43.59.32,1.45a8.71,8.71,0,0,1,.21,3.11A16.87,16.87,0,0,0,448.49,249.35ZM470,274.49a3.83,3.83,0,0,0-.16,1.34,4.59,4.59,0,0,1-.21,2.09,2.33,2.33,0,0,0-.27,1.34A4.68,4.68,0,0,1,469,281c-.21.75-.48,1.5-.64,2.25a7.63,7.63,0,0,1-.86,2.41,4.15,4.15,0,0,1-1.34,1.39,3,3,0,0,1-1.72.64c-.59-.05-1.13.37-1.77,0a2,2,0,0,0-.59-.05,5.67,5.67,0,0,1-3.86-1.66,7.79,7.79,0,0,1-2.63-3.81,15,15,0,0,1-1.07-2.95,1.26,1.26,0,0,1-.11-.43,6.84,6.84,0,0,0-.32-1.77,2.41,2.41,0,0,0-.38-1c0-1.13-.54-2.89-.54-4,0-1.77.05-4.77-.16-6.49a11.42,11.42,0,0,0,.11-2.36,4,4,0,0,1-.05-1.13,11.75,11.75,0,0,0,.05-1.34,9.43,9.43,0,0,0,.05-1.23,2.13,2.13,0,0,1,.21-1.29c-.21-.48.05-.86.05-1.29a3.59,3.59,0,0,1,.11-1.34c.27-.8.16-1.61.43-2.36a3.16,3.16,0,0,0,.11-.75,7.65,7.65,0,0,1,.32-1.88c.38-1.13.91-2.3,1.18-3.43a10.18,10.18,0,0,1,2.09-3.81,4.13,4.13,0,0,1,2.68-1.61,7.92,7.92,0,0,1,4.18.16,1.14,1.14,0,0,1,.64.38c.38.54,1,.86,1.29,1.45.05.16.32.16.32.05a14.51,14.51,0,0,1,.91-2.09.72.72,0,0,1,.75-.38,1.1,1.1,0,0,1,.59,0,.67.67,0,0,1,.54.8,2.72,2.72,0,0,0-.21,1.29c-.05.8-.05,1.61-.05,2.41,0,.16.05.32,0,.43-.43,1.13-.05,2.3-.11,3.43s-.16,2.2-.16,3.27c.16,1.07-.16,2.09.16,3.16.05.16-.27.48-.43.48a4.06,4.06,0,0,1-.8.05.81.81,0,0,1-.8-.75,7,7,0,0,1-.32-1.45,5.94,5.94,0,0,0-.21-1.93c-.21-.59-.11-1.29-.32-1.88a10.5,10.5,0,0,1-.38-2.2,23.17,23.17,0,0,0-.86-3.32,5.59,5.59,0,0,0-1-1.72,1.52,1.52,0,0,0-.59-.43,1.07,1.07,0,0,0-.7.11,3.82,3.82,0,0,0-1.29,2.25,13.75,13.75,0,0,1-.43,1.39,2.26,2.26,0,0,0-.11.59,7.65,7.65,0,0,1-.38,2.47,17.33,17.33,0,0,0-.32,3.27,6.93,6.93,0,0,1-.21,2.36,5.65,5.65,0,0,0-.11,1.34v1.07c.05.32-.21.64-.05,1a3.08,3.08,0,0,1,.05,1c.11.7-.16,1.34,0,2s0,1.29,0,1.93.05,1.39.05,2.09,0,1.34,0,2a32.49,32.49,0,0,0,.21,3.91,6.78,6.78,0,0,1,.11,2.09,15.63,15.63,0,0,0,.48,4.07c0,.11.05.16.05.27a9.62,9.62,0,0,0,.54,3.06c.27,1,.86,1.61,1.07,2.68a1.45,1.45,0,0,0,1.45.91.83.83,0,0,0,.86-.05c1-.8,1.29-.75,1.5-1.88a3.17,3.17,0,0,1,.11-.75,10.53,10.53,0,0,0,.86-2.14,13.27,13.27,0,0,0,.27-2c.05-.75.32-1.45.43-2.2.05-.27-.11-.54-.11-.86s.21-.54.27-.86a.62.62,0,0,1,.59-.54,1.21,1.21,0,0,1,1,0C470.25,273.79,470.25,273.9,470,274.49Zm25.14-30.39c.05,1.55-.05,2.84-.05,4.4a18.15,18.15,0,0,0,.16,2.95c.11,1.39-.05,2.89,0,4.29a19,19,0,0,0,0,4.93v6.22c0,.32,0,1-.16,1a53.75,53.75,0,0,1,.16,8.09,24.38,24.38,0,0,0,.05,4.82c0,1.23-.11,3.16-.05,4.4,0,.27.05.32.38.27.16,0,.27-.11.43-.11,1.55-.05,1.39,0,1.29,1.55a.42.42,0,0,1-.54.37,1.17,1.17,0,0,0-.43.05c-.43.05-1-.11-1.39.05s-4.61,0-5.09.05a4.59,4.59,0,0,1-.86-.05c-.38-.05-1,.21-1.23-.05s-.21-.86-.21-1.29a.34.34,0,0,1,.37-.38.59.59,0,0,1,.27-.05c.32-.05.91.11,1.13-.32a1,1,0,0,0,0-.86c.32-.54.05-1.18.16-1.77a6.52,6.52,0,0,0,.05-1.77V279c0-.59-.05-1.18-.05-1.82a6.74,6.74,0,0,0,.05-1.77c-.27-.54,0-1.23,0-1.82v-1.77a9,9,0,0,1,0-2.09c.11-.21-.11-.11,0-.48-.05-.43,0-3.91,0-5.09v-.59c-.05-.59-.05-.64-.75-.64h-1.77c-.91,0-1.82,0-2.73.05-.27,0-.43.11-.43.43a11.19,11.19,0,0,0,.21,3c.11.16-.05.38-.11.54s-.11.48,0,.59c.32.43-.05.91.11,1.39a2.1,2.1,0,0,1-.16,1.5,14.43,14.43,0,0,1-.05,2.63,40.31,40.31,0,0,1-.16,5.25c-.32,1.61.16,3.32.16,4.93,0,.64-.32,1,0,1.55.11.21-.16.59.05.59a5.27,5.27,0,0,1,.91.11c.27,0,.64-.11.86.16a1.74,1.74,0,0,1-.16,1.45,2.32,2.32,0,0,1-.38.21h-.86a2.67,2.67,0,0,0-1.13.05,4.19,4.19,0,0,1-.75.11c-.54.11-1-.16-1.61,0a8.06,8.06,0,0,1-1.61,0c-.27-.05-.54-.05-.75-.11a1.77,1.77,0,0,0-1.18-.05c-.54.21-.54.11-1.13.16a.81.81,0,0,1-.64-.59c0-.27-.05-.48-.05-.75a.7.7,0,0,1,.64-.7h.75c.75,0,1.18.11,1.29-.11s0-.8-.05-1.29c.16-2.95.05-6.22.05-9.38.05-.59-.16-1.13-.05-1.77a8.08,8.08,0,0,0,.05-1.61v-3.48a7.62,7.62,0,0,0-.16-2.68c-.05-.11.05-.27.05-.43-.05-.48.16-.91.11-1.39v-8a4.77,4.77,0,0,0-.21-1.93c-.11-.21,0-.59,0-.86-.05-2.14-.05-4.29-.11-6.43a2.77,2.77,0,0,0-.11-1.18c-.16-.32.05-.59.05-.86a.41.41,0,0,0-.11-.27,3.52,3.52,0,0,0-1.5.05.64.64,0,0,1-.8-.05.87.87,0,0,1-.43-.91v-.27c0-.21.11-.48.27-.48a9.91,9.91,0,0,1,1.29-.05c.32.05.7-.21,1.13,0,.21.16.43-.16.7-.11a2.16,2.16,0,0,0,.59,0c1.61-.05,3.22-.05,4.82-.05a4.34,4.34,0,0,0,1.18,0c.7-.21.86-.11.86.59,0,.21-.05.48-.05.75a.25.25,0,0,1-.27.27c-.16.05-.38.05-.59.11-1.18,0-1-.32-1,1,0,1.18,0,2.41-.05,3.59a4,4,0,0,1-.16,1.77c-.16.27-.05.59-.05.91v6.27a5,5,0,0,0,.16,1.77,4.7,4.7,0,0,1,0,1.5c-.05.43.11.7.48.7a11.24,11.24,0,0,1,1.34.11c.43.11.75-.21,1.13-.11a2,2,0,0,0,.59-.05h2.09c.38-.75.11-1.55.16-2.36s.05-1.5.05-2.25h-.05c0-1.13-.05-2.3,0-3.43.05-.7-.27-1.45,0-2.14a2.62,2.62,0,0,1-.05-1.29,5.89,5.89,0,0,0-.11-1.34c0-1.18.38-2.25,0-3.43-.11-.32.11-.64.11-1s-.32-.27-.59-.27-.54-.11-.8-.05-.54-.21-.43-.8c.05-.21.05-.48.11-.7s.16-.32.32-.21c.38.27.75-.05,1.13-.05a4.35,4.35,0,0,0,1.18,0c.86-.11,5.57.27,6.38,0,.11-.05.32-.05.38.05.11.27.21.64.32,1s-.38.75-.59.75a14.56,14.56,0,0,1-1.5.05C495.12,243.67,495.12,243.67,495.18,244.1Z"/><path class="cls-2" d="M276.74,211.23c-2.25,0-6,.26-6.67.26s-1.09-.19-1.09-.71c0-1.75,3.65.19,3.65-8,0-8-3.63-6.11-3.63-7.86,0-.5.26-.69,1-.69s4.47.29,6.72.29c2.62,0,7.73-.45,8.89-.45,1.32,0,1.83.87,1.83,3.15,0,3.33-.24,4.55-1.11,4.55-1.69,0-.87-5.29-5.77-5.29-4.13,0-4.1,5.16-2.2,5.16,2.33,0,2.25-3.73,3.55-3.73s.58,1.64.58,4.87.82,4.9-.58,4.9-1.22-3.73-3.55-3.73c-1.91,0-1.93,5.16,2.2,5.16,4.9,0,4.08-5.32,5.77-5.32.9,0,1.11,1.06,1.11,4.58,0,2.38-.5,3.28-1.83,3.28C284.54,211.68,279.36,211.23,276.74,211.23Z"/><path class="cls-2" d="M294.36,210.57c-.77,0-1,.82-1.59.82s-1.11-1.06-1.11-3c0-2.33.32-3.23,1.06-3.23,1.09,0,2.46,4.16,6.38,4.16,1.56,0,2.78-.79,2.78-1.69,0-3-10-2.12-10-8.39,0-3,2.36-4.95,7.46-4.95,2.33,0,4.37.79,5.13.79s1.14-.74,1.77-.74c.79,0,1.14,1.22,1.14,3s-.34,2.86-1,2.86c-.93,0-2.49-3.65-6.19-3.65-1.19,0-2.17.48-2.17,1.48,0,3.44,10,2,10,8.23,0,3.23-2.73,5.35-7.44,5.35C297,211.55,295.1,210.57,294.36,210.57Z"/><path class="cls-2" d="M314.1,210.75c0-1.75,3.78.19,3.78-7.81,0-3.86-.34-6.19-1.72-6.19-2.62,0-1.77,6.93-3.52,6.93-1.16,0-1.38-3.15-1.38-6.35,0-2.94.53-3.15,1.16-3.15,2.25,0,5,.37,7.83.37s5.58-.37,7.83-.37c.66,0,1.16.21,1.16,3.15,0,3.2-.24,6.35-1.38,6.35-1.72,0-.87-6.93-3.49-6.93-1.38,0-1.72,2.33-1.72,6.19,0,8,3.76,6.06,3.76,7.81,0,.56-.37.74-1.16.74s-2.86-.26-5-.26-4.1.26-5,.26S314.1,211.31,314.1,210.75Z"/><path class="cls-2" d="M341.12,210.75c0-1.75,3.65.19,3.65-6.72,0-5.77-3.63-4.1-3.63-5.82,0-1.32,1.91-.61,4.08-1.43,2.46-.93,2-2.46,3.18-2.46.82,0,1,.82,1,3.68,0,2.17,0,3.1,0,4.95,0,8,3.65,6.06,3.65,7.81,0,.82-.71.85-2.38.66a29.36,29.36,0,0,0-3.6-.19c-1.27,0-2.57.08-3.57.19C341.84,211.6,341.12,211.57,341.12,210.75Z"/><path class="cls-2" d="M355.47,208.11a2.05,2.05,0,0,1,2.06-2.25c.85,0,1,.24.93.71-.34,1.64,1.43,2.41,3.63,2.41,3.2,0,4.5-1.77,4.5-3.65,0-.4-.19-.53-.53-.37a8.53,8.53,0,0,1-3.31.74c-4.76,0-7.83-1.75-7.83-5.56,0-4,3.76-5.9,8.1-5.9,7,0,9.32,3.33,9.32,8.71,0,5.58-3.86,8.6-10.11,8.6C356.92,211.55,355.47,209.93,355.47,208.11Zm10.9-8.23c0-2-.93-3.07-2.67-3.07s-2.73,1.06-2.73,3.07,1,3.07,2.73,3.07S366.37,201.86,366.37,199.88Z"/><path class="cls-2" d="M381.78,210.75a.86.86,0,0,1,.56-.93c.63-.26,1.38-.58,2-.93s1.06-.66,1.06-1.16c0-.66-.53-1.09-2.33-1.09h-5.24c-1.85,0-2.38-.26-2.38-1.27s.21-1.64,1.61-3a27.8,27.8,0,0,0,5.4-6.51A2.34,2.34,0,0,1,385,194.4c1,0,1.8.19,3,.16,1.51,0,2.94-.16,2.94,1.22s-.29,3-.29,4.66c0,2.28.4,3.47,1.72,3.47,1,0,1.54-.13,2.14-.13s.9.4.9,1.14v.77c0,.74-.4,1.09-.9,1.09s-1.27-.24-2.51-.24a1.13,1.13,0,0,0-1.3,1.24c0,1.54,3.36,1.51,3.36,3,0,.82-.69.82-2.3.66-1-.11-2.25-.16-3.49-.19s-2.91.08-4.18.19C382.3,211.57,381.83,211.5,381.78,210.75Zm3.65-8.12a6.46,6.46,0,0,0-.32-3.26c-.29-.69-1-.71-1.69,0a10.88,10.88,0,0,0-2.38,3.26c-.45,1.11-.08,1.59,1.75,1.59S385.19,203.85,385.43,202.63Z"/><path class="cls-2" d="M404.35,210.75a.86.86,0,0,1,.56-.93c.63-.26,1.38-.58,2-.93s1.06-.66,1.06-1.16c0-.66-.53-1.09-2.33-1.09h-5.24c-1.85,0-2.38-.26-2.38-1.27s.21-1.64,1.61-3a27.8,27.8,0,0,0,5.4-6.51,2.34,2.34,0,0,1,2.51-1.48c1,0,1.8.19,3,.16,1.51,0,2.94-.16,2.94,1.22s-.29,3-.29,4.66c0,2.28.4,3.47,1.72,3.47,1,0,1.54-.13,2.14-.13s.9.4.9,1.14v.77c0,.74-.4,1.09-.9,1.09s-1.27-.24-2.51-.24a1.13,1.13,0,0,0-1.3,1.24c0,1.54,3.36,1.51,3.36,3,0,.82-.69.82-2.3.66-1-.11-2.25-.16-3.49-.19s-2.91.08-4.18.19C404.88,211.57,404.4,211.5,404.35,210.75Zm3.65-8.12a6.46,6.46,0,0,0-.32-3.26c-.29-.69-1-.71-1.69,0a10.88,10.88,0,0,0-2.38,3.26c-.45,1.11-.08,1.59,1.75,1.59S407.76,203.85,408,202.63Z"/></g></g></svg>